<?xml version="1.0" standalone="no"?>
<!DOCTYPE svg PUBLIC "-//W3C//DTD SVG 1.1//EN" "http://www.w3.org/Graphics/SVG/1.1/DTD/svg11.dtd" >
<svg>
<metadata>
Created by FontForge 20090914 at Fri Feb 24 16:33:09 2012
 By root
Copyright (c) 2009 by Studio Kmzero. All rights reserved.
</metadata>
<defs>
<font id="Filetto-Regular" horiz-adv-x="509" >
  <font-face 
    font-family="Filetto"
    font-weight="400"
    font-stretch="normal"
    units-per-em="1000"
    panose-1="2 0 5 6 2 0 0 2 0 4"
    ascent="750"
    descent="-250"
    x-height="486"
    cap-height="670"
    bbox="-90 -282 974 977"
    underline-thickness="50"
    underline-position="-50"
    unicode-range="U+0020-U+FB02"
  />
<missing-glyph horiz-adv-x="167" 
 />
    <glyph glyph-name=".notdef" horiz-adv-x="167" 
 />
    <glyph glyph-name="c" unicode="c" horiz-adv-x="477" 
d="M251 497q87 0 136 -35.5t65 -90.5l-94 -9q-14 28 -46 39t-61 11q-41 0 -66 -14t-38.5 -37t-18 -53.5t-4.5 -63.5q0 -36 5.5 -66.5t19.5 -52.5t39 -34.5t63 -12.5q14 0 30.5 2.5t31.5 8.5t27 15.5t18 22.5l94 -9q-16 -56 -65 -91t-136 -35q-65 0 -106.5 20t-65.5 54.5
t-34.5 80t-13.5 97.5q0 57 10.5 103.5t36 79.5t68 51.5t105.5 18.5z" />
    <glyph glyph-name="C" unicode="C" horiz-adv-x="537" 
d="M284 -8q-30 1 -53 4t-46 9q-57 18 -88 52.5t-45.5 79t-17 95.5t-2.5 102v5q0 73 5 120t13 77t19.5 47.5t25.5 32.5q18 19 40 32t47 20t50 10t49 3q54 -1 104.5 -14t85.5 -51q11 -14 21.5 -29.5t18.5 -40.5l-91 -10q-9 20 -24 31.5t-33.5 17.5t-39 8t-39.5 3
q-39 -2 -68 -8.5t-54 -32.5q-6 -6 -12.5 -16t-12.5 -32.5t-10 -62t-4 -105.5v-5q0 -66 4 -105.5t10 -62.5t12.5 -32.5t12.5 -15.5q26 -26 54.5 -33t66.5 -9q21 1 42 4t40 9.5t33.5 18.5t21.5 31l91 -12q-17 -48 -51 -78t-81 -44q-42 -12 -95 -13z" />
    <glyph glyph-name="a" unicode="a" horiz-adv-x="493" 
d="M367 241q-9 -8 -29.5 -14t-45.5 -11t-49.5 -9t-41.5 -8q-39 -8 -59 -24t-20 -44q0 -23 9.5 -37t24 -22t32 -10.5t34.5 -0.5q28 2 54.5 10.5t46.5 24t32 39t12 56.5v50zM41 369q7 28 25.5 52t45 40.5t60.5 26t74 9.5q43 0 81 -9.5t66 -27.5t44.5 -45t16.5 -62l1 -353h-88
v48q-37 -29 -80.5 -43.5t-88.5 -14.5q-83 0 -127 40q-22 19 -33 45t-11 55q0 31 10.5 53.5t28.5 38.5t41 26t48 16q18 4 40 7t46.5 7t51 10t52.5 17q34 14 20 53q-10 30 -41.5 44.5t-77.5 14.5q-40 -2 -72.5 -15t-43.5 -44z" />
    <glyph glyph-name="i" unicode="i" horiz-adv-x="162" 
d="M123 487v-487h-88v487h88zM36 670h87v-82h-87v82z" />
    <glyph glyph-name="B" unicode="B" horiz-adv-x="584" 
d="M40 0v670h298q43 0 80 -12.5t63.5 -35.5t41.5 -57t15 -77q0 -42 -14 -82t-52 -60q22 -18 37.5 -34.5t25 -34.5t13.5 -40t4 -51q0 -44 -13.5 -77.5t-39.5 -59.5q-31 -26 -69 -37.5t-92 -11.5h-298zM338 88q24 0 47 2.5t40.5 12t28 29t10.5 54.5q0 57 -32.5 84.5
t-93.5 27.5h-210v-210h210zM334 381q55 0 85.5 25t30.5 82q0 27 -9.5 45t-25.5 29t-36 16t-41 5h-210v-202h206z" />
    <glyph glyph-name="D" unicode="D" horiz-adv-x="580" 
d="M40 670h255q25 0 52 -3.5t52.5 -11t48 -19.5t39.5 -29q13 -15 24 -32t19 -46t12.5 -75t4.5 -118v-7q0 -70 -4.5 -114.5t-12.5 -73t-19 -45.5t-24 -32q-38 -38 -87.5 -51t-99.5 -13h-260v670zM128 88h167q41 0 69.5 6.5t54.5 32.5l12 14.5t13 29.5t10 58t4 100v7
q0 64 -4 102.5t-10 60t-13 30.5l-12 15q-26 26 -57 32.5t-67 6.5h-167v-495z" />
    <glyph glyph-name="E" unicode="E" 
d="M469 670v-87h-342v-203h258v-84h-258v-208h342v-88h-429v670h429z" />
    <glyph glyph-name="F" unicode="F" 
d="M469 670v-87h-341v-203h257v-84h-257v-296h-88v670h429z" />
    <glyph glyph-name="H" unicode="H" horiz-adv-x="568" 
d="M527 670v-670h-88v296h-312v-296h-87v670h87v-290h312v290h88z" />
    <glyph glyph-name="I" unicode="I" horiz-adv-x="171" 
d="M128 670v-670h-88v670h88z" />
    <glyph glyph-name="J" unicode="J" horiz-adv-x="516" 
d="M231 -10q-37 0 -73.5 7.5t-67.5 23.5t-54 42t-34 62l95 10q16 -32 52.5 -44.5t81.5 -12.5q64 0 96.5 20t46 55t14.5 81.5t3 99.5v334h88v-329q-1 -77 -6 -126t-12.5 -79.5t-18 -48t-21.5 -30.5q-20 -20 -42 -33t-46 -20t-49.5 -9.5t-52.5 -2.5z" />
    <glyph glyph-name="L" unicode="L" 
d="M128 670v-582h340v-88h-428v670h88z" />
    <glyph glyph-name="M" unicode="M" horiz-adv-x="637" 
d="M596 670v-670h-88v441l-140 -366h-95l-145 367v-442h-88v670h87l193 -480l188 480h88z" />
    <glyph glyph-name="N" unicode="N" horiz-adv-x="593" 
d="M552 670v-670h-88l-336 504v-504h-88v670h88l336 -505v505h88z" />
    <glyph glyph-name="T" unicode="T" horiz-adv-x="483" 
d="M14 670h455v-87h-187v-583h-88v583h-180v87z" />
    <glyph glyph-name="K" unicode="K" horiz-adv-x="616" 
d="M128 670v-309l331 309h119l-299 -286l309 -384h-118l-255 323l-87 -83v-240h-88v670h88z" />
    <glyph glyph-name="V" unicode="V" horiz-adv-x="593" 
d="M113 670l182 -534l187 534h95l-235 -670h-91l-235 670h97z" />
    <glyph glyph-name="X" unicode="X" horiz-adv-x="546" 
d="M224 333l-192 337h101l140 -249l137 249h104l-192 -337l192 -333h-104l-137 245l-138 -245h-103z" />
    <glyph glyph-name="Y" unicode="Y" horiz-adv-x="510" 
d="M497 670l-197 -348v-322h-88v322l-199 348h98l145 -270l144 270h97z" />
    <glyph glyph-name="Z" unicode="Z" horiz-adv-x="512" 
d="M31 86l337 497h-320v87h423v-86l-333 -496h342v-88h-449v86z" />
    <glyph glyph-name="P" unicode="P" horiz-adv-x="592" 
d="M355 670q100 -5 150.5 -56.5t50.5 -146.5q0 -100 -47.5 -151t-153.5 -57l-227 -1v-258h-88v670h315zM128 583v-237h227q54 0 84 31t30 87q0 57 -32.5 87t-81.5 32h-227z" />
    <glyph glyph-name="U" unicode="U" horiz-adv-x="572" 
d="M535 668v-365q0 -66 -4.5 -107t-12.5 -67.5t-19 -42t-24 -30.5q-18 -20 -40 -32.5t-46 -19.5t-50 -10t-52 -4q-53 2 -103.5 14.5t-85.5 51.5q-13 15 -24.5 30.5t-19.5 41.5t-13 67t-5 106v367h88v-365q1 -54 5.5 -95.5t20.5 -70t48.5 -44.5t88.5 -17q59 1 91 19t47 48
t18 70.5t4 87.5v367h88z" />
    <glyph glyph-name="O" unicode="O" horiz-adv-x="567" 
d="M284 76q38 2 66.5 8.5t54.5 32.5q6 6 12.5 15.5t12.5 32t10 62t4 105.5v6q0 66 -4 106t-10 62.5t-12.5 32t-12.5 15.5q-26 25 -54.5 32.5t-65.5 8.5q-38 -1 -67.5 -8.5t-54.5 -32.5q-6 -6 -12.5 -15.5t-12.5 -32t-10 -62.5t-4 -106v-6q0 -66 4 -105.5t10 -62t12.5 -32
t12.5 -15.5q25 -26 54 -32.5t67 -8.5zM285 -10q-27 1 -53.5 4.5t-51 10.5t-46.5 19t-39 31q-13 15 -24.5 32.5t-19.5 47.5t-13 77t-5 120v6q0 73 5 120t13.5 76.5t19.5 47t24 32.5q35 39 83.5 52t104.5 14q54 -1 104.5 -14.5t84.5 -51.5q13 -14 24.5 -31.5t19.5 -47.5
t13 -77t5 -120v-6q0 -73 -5 -120t-13 -77t-19.5 -47.5t-24.5 -32.5q-18 -20 -40 -32t-47 -19t-50.5 -10t-49.5 -4z" />
    <glyph glyph-name="Q" unicode="Q" horiz-adv-x="559" 
d="M29 332q2 94 13 160t39 108t76.5 61t125.5 19q85 0 134 -27.5t74 -74.5t32 -108.5t7 -130.5q-2 -92 -13.5 -155.5t-35.5 -104t-62.5 -60.5t-92.5 -25v-67h-89v67q-58 5 -97.5 25t-64 60t-35.5 102t-11 151zM237 147h89v-67q40 7 63 27.5t34.5 52t14.5 75t3 97.5
q0 69 -5 118.5t-21.5 82t-48.5 47.5t-85 15q-56 0 -88 -14.5t-47.5 -46t-20 -81.5t-5.5 -121q0 -10 -0.5 -19.5t-0.5 -18.5q0 -51 5 -88.5t18.5 -64t36 -41.5t58.5 -21v68z" />
    <glyph glyph-name="G" unicode="G" horiz-adv-x="561" 
d="M296 358h237v-24q0 -55 -3.5 -107.5t-18.5 -97t-46 -77.5t-86 -49q-40 -12 -95 -13q-30 1 -53 4t-44 9q-58 17 -89 52.5t-45.5 81t-17 97t-2.5 100.5v5q0 73 5 120t13 76.5t19.5 47t24.5 32.5q36 39 87 52t100 13q54 0 104 -14t85 -51q12 -14 22 -29t18 -40l-91 -11
q-2 4 -7 10t-9 10q-25 25 -54 32t-66 9q-38 -2 -67 -9t-54 -32q-6 -6 -13 -16t-12.5 -32.5t-9.5 -62t-4 -105.5v-5q0 -66 4 -106t9.5 -63t12.5 -33t13 -16q25 -25 53.5 -32t66.5 -8q38 1 66 7.5t54 31.5q5 5 11 13t11.5 24.5t9.5 45.5t6 76h-145v84z" />
    <glyph glyph-name="R" unicode="R" horiz-adv-x="605" 
d="M40 0v670h315q103 0 152 -56.5t49 -151.5q0 -28 -5.5 -50.5t-13.5 -40t-17.5 -30t-16.5 -20.5q-28 -26 -63 -38.5t-72 -14.5l208 -268h-114l-204 268h-130v-268h-88zM128 583v-227h227q54 0 84 25.5t30 87.5q0 33 -8.5 54.5t-24 34.5t-36.5 18.5t-45 6.5h-227z" />
    <glyph glyph-name="S" unicode="S" horiz-adv-x="551" 
d="M277 -10q-43 0 -83.5 11t-75 31t-59.5 48.5t-37 64.5l89 11q12 -22 31 -37.5t41 -25t46.5 -14t47.5 -4.5q31 0 59 6t49.5 19.5t34 35t12.5 53.5q0 30 -19 53t-54 38q-40 17 -83 23.5t-83 20.5q-67 21 -103.5 66t-36.5 117q1 41 21 73.5t52 54.5t73 33.5t83 11.5
q40 0 79.5 -11t71 -29t52 -42.5t24.5 -51.5l-96 -12q-6 18 -21 30t-33 19t-37 9.5t-34 2.5q-23 0 -48.5 -5t-46.5 -16.5t-35 -30t-14 -44.5q0 -33 17.5 -53t43.5 -32t54.5 -18t51.5 -12l46 -12t46.5 -15.5t43.5 -23t39 -33.5q20 -23 29.5 -51t9.5 -57q0 -54 -21.5 -92.5
t-56.5 -63.5t-79.5 -36t-90.5 -10z" />
    <glyph glyph-name="b" unicode="b" 
d="M473 239q0 -55 -11 -100.5t-36.5 -78.5t-66.5 -51t-101 -18q-20 0 -39.5 5.5t-37 13.5t-31.5 18.5t-22 21.5v-50h-88v670h88v-241q17 29 53.5 48t76.5 19q66 0 107.5 -20.5t65.5 -55.5t33 -81.5t9 -99.5zM258 77q35 0 56.5 11t32.5 20l14 14.5t12 21.5t8.5 37t3.5 62
q0 36 -3.5 59t-8.5 37.5t-12 23t-14 15.5q-11 10 -34 21t-55 11q-35 0 -57 -11t-32 -21q-7 -7 -14 -15.5t-13 -23t-10 -37.5t-4 -59q0 -37 4 -60t10 -37.5t13 -22.5t14 -15q10 -9 32 -20t57 -11z" />
    <glyph glyph-name="d" unicode="d" horiz-adv-x="511" 
d="M37 239q0 53 9 99.5t33 81.5t65.5 55.5t107.5 20.5q20 0 40 -5t38 -14t31.5 -21.5t20.5 -26.5v241h88v-670h-88v50q-17 -25 -53.5 -42t-76.5 -17q-60 0 -101 18t-66.5 51t-36.5 78.5t-11 100.5zM252 77q35 0 57 11t32 20q7 7 14 15t13 22.5t10 37.5t4 60q0 36 -4 59
t-10 37.5t-13 23t-14 15.5q-10 10 -32 21t-57 11q-32 0 -55 -11t-34 -21q-7 -7 -14 -15.5t-12 -23t-8.5 -37.5t-3.5 -59q0 -39 3.5 -62t8.5 -37t12 -21.5l14 -14.5q11 -9 32.5 -20t56.5 -11z" />
    <glyph glyph-name="e" unicode="e" horiz-adv-x="500" 
d="M462 206h-342q3 -31 10 -55.5t21.5 -41t37.5 -25.5t57 -9q41 0 63.5 14t33.5 31l94 -15q-21 -54 -71.5 -84.5t-119.5 -30.5q-61 0 -102 20t-66.5 54.5t-36.5 80.5t-11 98q0 55 10.5 101.5t35.5 80.5t66.5 53t103.5 19q61 0 102.5 -19t67 -53t36 -80.5t10.5 -101.5v-37z
M246 412q-26 0 -48.5 -6.5t-40 -21.5t-27.5 -39.5t-11 -60.5h254q0 37 -10 61.5t-27.5 39.5t-40.5 21t-49 6z" />
    <glyph glyph-name="k" unicode="k" horiz-adv-x="466" 
d="M129 670v-363l171 179h122l-184 -182l210 -304h-108l-162 239l-49 -49v-190h-89v670h89z" />
    <glyph glyph-name="l" unicode="l" horiz-adv-x="171" 
d="M128 670v-670h-88v670h88z" />
    <glyph glyph-name="m" unicode="m" horiz-adv-x="807" 
d="M770 0h-87v268q0 30 -6 57t-20 47.5t-37 33t-57 12.5q-34 -3 -56.5 -16t-35.5 -33.5t-18.5 -46t-5.5 -54.5v-268h-84v268q0 31 -7 58.5t-21.5 48t-36.5 32t-53 11.5q-32 -3 -54 -16t-36 -32.5t-20.5 -44.5t-6.5 -52v-273h-88v487h88v-59q3 12 15.5 24t29 22t36 16.5
t36.5 6.5q36 1 62.5 -5t45.5 -16t32.5 -22.5t24.5 -25.5q7 13 22.5 25t35.5 22t44.5 16t50.5 6q55 0 94 -18.5t64 -49.5t37 -73t12 -88v-268z" />
    <glyph glyph-name="n" unicode="n" horiz-adv-x="500" 
d="M464 0h-88v267q0 28 -3.5 47.5t-8.5 33t-12 22t-13 14.5q-12 11 -33 22t-54 11q-31 0 -52 -11t-33 -22q-6 -6 -13 -14t-13 -21t-9.5 -32.5t-3.5 -49.5v-267h-88v486h88v-57q7 15 21 27.5t31 21.5t36 14t36 5q55 0 95 -16t66 -46t38.5 -72.5t12.5 -95.5v-267z" />
    <glyph glyph-name="o" unicode="o" horiz-adv-x="493" 
d="M244 77q39 0 64 13.5t39.5 36.5t19.5 53t5 63q0 37 -6 67.5t-20.5 53t-39 35t-62.5 12.5q-41 0 -65 -13.5t-37 -36.5t-17 -53t-4 -63q0 -35 5 -66t18.5 -53.5t37.5 -35.5t62 -13zM462 243q0 -56 -11.5 -102t-37 -80t-67.5 -52.5t-102 -18.5q-62 0 -103 20.5t-65.5 55.5
t-34.5 80.5t-10 96.5q0 55 10 102t35 81t65.5 53t102.5 19q65 0 107.5 -20t67 -54.5t34 -81t9.5 -99.5z" />
    <glyph glyph-name="p" unicode="p" 
d="M473 247q0 -53 -9 -99.5t-33 -81.5t-65.5 -55.5t-107.5 -20.5q-40 0 -73.5 15t-56.5 37v-235h-88v678h88v-44q20 19 55 36.5t75 17.5q60 0 101 -18t66.5 -51t36.5 -78.5t11 -100.5zM258 409q-35 0 -57 -11t-32 -20q-7 -7 -14 -15t-13 -22.5t-10 -37.5t-4 -60q0 -36 4 -59
t10 -37.5t13 -23t14 -15.5q10 -10 32 -21t57 -11q32 0 55 11t34 21q7 7 14 15.5t12 23t8.5 37.5t3.5 59q0 32 -5 62t-18.5 53t-38.5 37t-65 14z" />
    <glyph glyph-name="q" unicode="q" horiz-adv-x="511" 
d="M37 250q0 55 11 100.5t36.5 78.5t66.5 51t101 18q20 0 38.5 -5t35 -13t30.5 -17.5t26 -18.5v42h88v-676h-88v235q-23 -22 -56.5 -37t-73.5 -15q-66 0 -107.5 20.5t-65.5 55.5t-33 81.5t-9 99.5zM252 412q-35 0 -56.5 -11t-32.5 -20l-14 -14.5t-12 -21.5t-8.5 -37
t-3.5 -62q0 -36 3.5 -59t8.5 -37.5t12 -23t14 -15.5q11 -10 34 -21t55 -11q35 0 57 11t32 21q7 7 14 15.5t13 23t10 37.5t4 59q0 37 -4 60t-10 37.5t-13 22.5t-14 15q-10 9 -32 20t-57 11z" />
    <glyph glyph-name="x" unicode="x" horiz-adv-x="481" 
d="M140 486l100 -165l101 165h107l-156 -243l156 -243h-102l-106 165l-100 -165h-107l156 243l-156 243h107z" />
    <glyph glyph-name="v" unicode="v" horiz-adv-x="442" 
d="M425 486l-160 -486h-88l-160 486h95l109 -352l110 352h94z" />
    <glyph glyph-name="u" unicode="u" horiz-adv-x="499" 
d="M35 486h88v-267q0 -28 3.5 -47.5t8.5 -33t12 -22t13 -14.5q12 -11 33 -22t54 -11q31 1 52 11.5t33 21.5q6 6 13 14t13 21t9.5 32.5t3.5 49.5v267h88v-486h-88v57q-8 -15 -21.5 -27.5t-30.5 -21.5t-36 -14t-36 -5q-55 0 -95 16t-66 46t-38.5 72.5t-12.5 95.5v267z" />
    <glyph glyph-name="y" unicode="y" horiz-adv-x="496" 
d="M34 486h88v-271q0 -71 27.5 -105t96.5 -34q71 0 98 35.5t27 101.5v273h88v-431q0 -54 -11.5 -99.5t-37 -77.5t-66.5 -50t-101 -18q-75 0 -127.5 33.5t-72.5 85.5l93 10q8 -10 16.5 -18t20 -13t28 -8t42.5 -3q37 0 60 10t37 29.5t21 48t10 65.5q-24 -31 -53.5 -45.5
t-71.5 -14.5q-104 0 -157.5 61t-54.5 164v271z" />
    <glyph glyph-name="w" unicode="w" horiz-adv-x="774" 
d="M748 486l-160 -486h-88l-113 343l-113 -343h-88l-160 486h95l109 -352l110 352h95l109 -352l110 352h94z" />
    <glyph glyph-name="z" unicode="z" horiz-adv-x="466" 
d="M38 88l266 310h-253v88h367v-88l-271 -310h280v-88h-389v88z" />
    <glyph glyph-name="t" unicode="t" horiz-adv-x="330" 
d="M34 486h49v157h88v-157h116v-88h-116v-228q0 -48 13.5 -69t56.5 -21h52v-88h-52q-49 0 -79.5 12.5t-48 35.5t-24 56t-6.5 74v228h-49v88z" />
    <glyph glyph-name="f" unicode="f" horiz-adv-x="335" 
d="M82 486q0 40 8.5 75.5t27.5 61.5t50.5 41.5t78.5 15.5h55v-88h-55q-27 -1 -42.5 -10.5t-23 -24t-9.5 -33t-2 -38.5h116v-88h-116v-398h-88v398h-49v88h49z" />
    <glyph glyph-name="h" unicode="h" horiz-adv-x="496" 
d="M458 0h-88v267q0 28 -2.5 47t-6.5 31.5t-10 20.5t-12 14q-12 11 -33 22t-54 11q-31 0 -52 -11t-33 -22l-13 -13.5t-13 -19.5t-9.5 -31t-3.5 -49v-267h-88v670h88v-226q22 21 54.5 37t69.5 16q55 0 94 -16t63.5 -46t36.5 -72.5t12 -95.5v-267z" />
    <glyph glyph-name="j" unicode="j" horiz-adv-x="214" 
d="M172 -6q0 -42 -7 -76t-25 -58t-49.5 -37t-80.5 -13h-54v87h54q21 0 35 3.5t22.5 14t12.5 29.5t4 50v492h88v-492zM84 680h88v-88h-88v88z" />
    <glyph glyph-name="s" unicode="s" horiz-adv-x="468" 
d="M335 375q-8 18 -34.5 31.5t-64.5 13.5q-47 0 -79 -12t-32 -41q0 -21 11 -33t40 -19q3 -1 21 -5t38 -9q24 -5 53 -12q31 -7 58.5 -19.5t48.5 -30.5t33.5 -41.5t12.5 -51.5q0 -39 -18.5 -68.5t-48 -49t-67 -29t-75.5 -9.5q-34 0 -68 8t-62.5 23.5t-48.5 39.5t-27 56l92 11
q9 -23 40.5 -40.5t73.5 -17.5q25 0 46.5 3.5t38 11.5t26 22t9.5 35q0 11 -8 25.5t-40 25.5q-24 8 -51 15.5l-50 13.5l-53 12q-48 11 -80.5 43t-32.5 86q0 33 16.5 58t44 42t63.5 25.5t75 8.5q35 0 67.5 -7t59 -20.5t44.5 -34.5t24 -48z" />
    <glyph glyph-name="r" unicode="r" horiz-adv-x="345" 
d="M313 401q-12 7 -27 12t-35 4q-29 -1 -51.5 -13t-38 -32t-24.5 -46t-9 -53v-273h-88v487h88v-58q7 15 20.5 27.5t30.5 21.5t36.5 14t37.5 5q30 0 60 -8v-88z" />
    <glyph glyph-name="g" unicode="g" horiz-adv-x="497" 
d="M460 486v-429q0 -53 -11.5 -98.5t-37.5 -78.5t-67.5 -51.5t-101.5 -18.5q-35 0 -67.5 8t-59.5 22.5t-46 35.5t-27 48l92 23q17 -32 46 -40.5t62 -8.5q72 0 99.5 37t30.5 114q-26 -38 -59.5 -48.5t-70.5 -10.5q-62 0 -103 20.5t-65 56t-34 82t-10 98.5t11 98t36 79.5
t65.5 53t99.5 19.5q38 0 74 -15t56 -38v42h88zM242 78q34 0 59 8t40.5 27.5t23 52t7.5 81.5v17q0 79 -36 112t-94 33q-65 0 -95 -36.5t-30 -125.5q0 -48 7 -80t22 -52t38.5 -28.5t57.5 -8.5z" />
    <glyph glyph-name="one" unicode="1" horiz-adv-x="301" 
d="M260 594v-594h-88v482l-116 -115l-55 57l171 170h88z" />
    <glyph glyph-name="two" unicode="2" horiz-adv-x="447" 
d="M361 283q-7 -7 -26.5 -22.5l-45 -35.5l-53.5 -42l-52 -41.5l-40.5 -33.5t-18.5 -19h285v-89h-380v80q0 20 13 40.5t36 40.5l25 21.5l41.5 35.5l49.5 41.5l48 40l37 31t17 14.5q10 8 19.5 24t9.5 48q0 48 -25.5 69.5t-70.5 22.5q-98 -4 -98 -101h-83v14q0 60 28.5 102.5
t81.5 61.5q17 5 35 8t39 3q38 -1 70 -12q56 -22 84 -64t28 -99q0 -27 -5 -49t-13 -39t-17.5 -30t-18.5 -21z" />
    <glyph glyph-name="zero" unicode="0" horiz-adv-x="457" 
d="M228 504q-23 0 -41.5 -7t-32.5 -19q-8 -6 -14.5 -19t-11 -34.5t-7 -54t-2.5 -78.5q0 -54 2.5 -88.5t7 -55.5t11 -32t14.5 -18q14 -11 32.5 -18t41.5 -7t41.5 7t32.5 18q8 7 14.5 18t11.5 32t7.5 55.5t2.5 88.5q0 46 -2.5 78.5t-7.5 54t-11.5 34.5t-14.5 19
q-14 12 -32.5 19t-41.5 7zM228 589q25 0 46.5 -5.5t38 -13.5t28.5 -16t19 -14q12 -12 24 -28.5t21 -43.5t14.5 -69t5.5 -106q0 -63 -5.5 -106t-14.5 -71.5t-21 -46.5t-24 -30q-7 -6 -19 -14.5t-29 -16t-38.5 -13t-45.5 -5.5q-25 0 -46.5 5.5t-38 13t-28.5 16t-19 14.5
q-12 12 -24 30t-21 46.5t-14.5 71.5t-5.5 106q0 64 5.5 106t14.5 69t21 43.5t24 28.5q7 6 19 14t28.5 16t37.5 13.5t47 5.5z" />
    <glyph glyph-name="three" unicode="3" horiz-adv-x="458" 
d="M177 301h50q23 0 40 9.5t28.5 25t17.5 36t6 41.5q0 43 -26 68.5t-67 25.5q-49 -2 -74 -28t-25 -73h-86q1 63 27.5 110.5t83.5 67.5q16 5 32.5 8.5t37.5 3.5q38 2 73 -11t61 -36q32 -30 42 -62.5t10 -76.5q0 -50 -18 -85.5t-41 -58.5q44 -28 62 -70t18 -90
q0 -96 -55.5 -148.5t-146.5 -52.5q-94 0 -146.5 49.5t-55.5 137.5h85q2 -29 10 -45t17 -24q20 -17 43.5 -23t47.5 -6q28 0 46.5 7.5t34.5 21.5q10 9 20.5 27.5t10.5 52.5q0 36 -11 55t-21 28q-14 13 -32 20t-49 7h-50v88z" />
    <glyph glyph-name="four" unicode="4" horiz-adv-x="466" 
d="M36 88l157 506h92l-159 -506h139v162h88v-162h81v-88h-81v-94h-88v94h-229v88z" />
    <glyph glyph-name="five" unicode="5" horiz-adv-x="452" 
d="M57 591h340v-87h-261l-13 -173q40 33 104 33q56 0 94 -19t61 -51.5t33 -75t10 -90.5q0 -114 -48.5 -175.5t-149.5 -61.5q-81 0 -130.5 42.5t-64.5 114.5h92q11 -42 35 -56t68 -14q36 0 58 11.5t34 31.5t16 47.5t4 59.5q0 36 -5 63.5t-17.5 46.5t-34 28.5t-55.5 10.5
q-43 1 -70.5 -16t-34.5 -46h-91z" />
    <glyph glyph-name="seven" unicode="7" horiz-adv-x="451" 
d="M420 504l-187 -600h-90l187 600h-206v-71h-88v158h384v-87z" />
    <glyph glyph-name="six" unicode="6" horiz-adv-x="469" 
d="M220 688h92l-122 -284l19.5 3.5t22.5 1.5q42 0 78.5 -16.5t63 -45t42 -67t15.5 -81.5q0 -49 -14.5 -87.5t-40.5 -65.5t-62.5 -41t-81.5 -14q-46 0 -83 17t-62.5 45.5t-39.5 66t-14 78.5q0 29 4.5 51.5t9.5 34.5zM121 199q1 -35 12 -58t27.5 -37t35 -20t35.5 -6
q57 2 85 35t28 86q0 55 -31 87t-82 32q-56 0 -83.5 -34t-26.5 -85z" />
    <glyph glyph-name="eight" unicode="8" horiz-adv-x="462" 
d="M230 -8q-40 0 -76.5 13.5t-64 38.5t-44 61.5t-16.5 82.5q0 49 19 94t60 68l-6 6q-9 9 -18 23.5t-17 33t-12.5 39.5t-4.5 42q0 42 13.5 76.5t37.5 58.5t57.5 37.5t74.5 13.5q40 0 73.5 -13.5t58 -38t38 -58.5t13.5 -76q0 -21 -5 -41.5t-13 -38.5t-17 -32.5t-18 -23.5
l-8 -8q21 -10 35.5 -28.5t24 -41t13.5 -47t4 -45.5q0 -94 -54 -145t-148 -51zM232 297q-50 0 -84 -28.5t-34 -79.5q0 -54 33.5 -82t84.5 -28q55 0 85 28t30 82q0 51 -30 79.5t-85 28.5zM331 494q0 46 -28.5 71.5t-70.5 25.5q-48 0 -73 -27t-25 -70q0 -48 25 -76t73 -28
q53 0 76 30t23 74z" />
    <glyph glyph-name="nine" unicode="9" horiz-adv-x="465" 
d="M245 -96h-92l122 284l-19.5 -3.5t-22.5 -1.5q-42 0 -78.5 16.5t-63 45t-42 67t-15.5 81.5q0 49 14.5 87.5t40.5 65.5t62.5 41t81.5 14q46 0 83 -17t62.5 -45.5t39.5 -66t14 -78.5q0 -29 -4.5 -51.5t-9.5 -34.5zM344 393q-1 34 -12 57.5t-27.5 37.5t-35.5 20t-35 6
q-57 -2 -85 -35t-28 -86q0 -55 31 -87t82 -32q56 0 83.5 34t26.5 85z" />
    <glyph glyph-name="colon" unicode=":" horiz-adv-x="166" 
d="M36 108h88v-108h-88v108zM36 487h88v-108h-88v108z" />
    <glyph glyph-name="semicolon" unicode=";" horiz-adv-x="165" 
d="M36 108h88v-97q0 -28 -3.5 -50.5t-13 -40t-27 -29.5t-45.5 -20v55q20 10 26.5 20.5t6.5 32.5v21h-32v108zM36 487h88v-108h-88v108z" />
    <glyph glyph-name="bracketleft" unicode="[" horiz-adv-x="275" 
d="M40 -282v1040h222v-88h-134v-864h134v-88h-222z" />
    <glyph glyph-name="bracketright" unicode="]" horiz-adv-x="276" 
d="M13 -282v88h134v864h-134v88h222v-1040h-222z" />
    <glyph glyph-name="circumflex" unicode="&#x2c6;" horiz-adv-x="385" 
d="M366 514h-102l-71 92l-71 -92h-102l128 166h88z" />
    <glyph glyph-name="OE" unicode="&#x152;" horiz-adv-x="922" 
d="M290 76q38 2 66.5 8.5t54.5 32.5q6 6 12.5 15.5t12.5 32t10 62t4 105.5v6q0 66 -4 106t-10 62.5t-12.5 32t-12.5 15.5q-26 25 -54.5 32.5t-65.5 8.5q-38 -1 -67.5 -8.5t-54.5 -32.5q-6 -6 -12.5 -15.5t-12.5 -32t-10 -62.5t-4 -106v-6q0 -66 4 -105.5t10 -62t12.5 -32
t12.5 -15.5q25 -26 54 -32.5t67 -8.5zM291 -10q-27 1 -53.5 4.5t-51 10.5t-46.5 19t-39 31q-13 15 -24.5 32.5t-19.5 47.5t-13 77t-5 120v6q0 73 5 120t13.5 76.5t19.5 47t24 32.5q35 39 83.5 52t104.5 14q54 -1 104.5 -14.5t84.5 -51.5q13 -14 24.5 -31.5t19.5 -47.5
t13 -77t5 -120v-6q0 -73 -5 -120t-13 -77t-19.5 -47.5t-24.5 -32.5q-18 -20 -40 -32t-47 -19t-50.5 -10t-49.5 -4zM880 670v-87h-342v-203h258v-84h-258v-208h342v-88h-429v670h429z" />
    <glyph glyph-name="oe" unicode="&#x153;" horiz-adv-x="860" 
d="M258 77q39 0 64 13.5t39.5 36.5t19.5 53t5 63q0 37 -6 67.5t-20.5 53t-39 35t-62.5 12.5q-41 0 -65 -13.5t-37 -36.5t-17 -53t-4 -63q0 -35 5 -66t18.5 -53.5t37.5 -35.5t62 -13zM476 243q0 -56 -11.5 -102t-37 -80t-67.5 -52.5t-102 -18.5q-62 0 -103 20.5t-65.5 55.5
t-34.5 80.5t-10 96.5q0 55 10 102t35 81t65.5 53t102.5 19q65 0 107.5 -20t67 -54.5t34 -81t9.5 -99.5zM817 206h-342q3 -31 10 -55.5t21.5 -41t37.5 -25.5t57 -9q41 0 63.5 14t33.5 31l94 -15q-21 -54 -71.5 -84.5t-119.5 -30.5q-61 0 -102 20t-66.5 54.5t-36.5 80.5
t-11 98q0 55 10.5 101.5t35.5 80.5t66.5 53t103.5 19q61 0 102.5 -19t67 -53t36 -80.5t10.5 -101.5v-37zM601 412q-26 0 -48.5 -6.5t-40 -21.5t-27.5 -39.5t-11 -60.5h254q0 37 -10 61.5t-27.5 39.5t-40.5 21t-49 6z" />
    <glyph glyph-name="braceleft" unicode="{" horiz-adv-x="253" 
d="M182 740l49 -75q-7 -3 -14 -7t-12 -9q-14 -14 -26 -43t-21 -77t-14 -118.5t-5 -167.5v-5q0 -97 4 -167t12 -118t19.5 -77t26.5 -44q5 -5 12 -8.5t14 -6.5l-45 -76q-12 6 -25.5 16.5t-22.5 19.5q-17 17 -31 47t-24.5 79.5t-16.5 121.5t-7 173h-44v95h44q1 98 7 168
t16.5 118.5t24.5 78t31 47.5q9 9 22.5 19t25.5 16z" />
    <glyph glyph-name="braceright" unicode="}" horiz-adv-x="253" 
d="M71 740q12 -6 25.5 -16t22.5 -19q17 -18 31 -47.5t24.5 -78t16.5 -118.5t7 -168h44v-95h-44q-1 -101 -7 -173t-16.5 -121.5t-24.5 -79.5t-31 -47q-9 -9 -22.5 -19.5t-25.5 -16.5l-45 76q7 3 14 6.5t12 8.5q15 15 26.5 44t19.5 77t12 118t4 167v5q0 97 -5 167.5t-14 118.5
t-21 77t-26 43q-5 5 -12 9t-14 7z" />
    <glyph glyph-name="parenleft" unicode="(" horiz-adv-x="224" 
d="M156 -261q-11 5 -20.5 13l-19.5 16q-17 16 -33.5 48.5t-29.5 88t-21 137t-8 195.5q0 113 8 195t21 138.5t29.5 90t33.5 50.5q10 9 20 16t21 12l48 -74q-7 -3 -12.5 -7l-12.5 -9q-12 -9 -24 -39t-21.5 -81t-16 -123.5t-6.5 -168.5q0 -98 5.5 -169.5t14.5 -121t20.5 -77.5
t23.5 -38l12.5 -9t12.5 -7z" />
    <glyph glyph-name="parenright" unicode=")" horiz-adv-x="224" 
d="M23 -185q7 3 12.5 7l12.5 9q12 10 23.5 38t20.5 77.5t14.5 121t5.5 169.5q0 96 -6.5 168.5t-16 123.5t-21.5 81t-24 39l-12.5 9t-12.5 7l48 74q11 -5 21 -12t20 -16q17 -17 33.5 -50.5t29.5 -90t21 -138.5t8 -195q0 -114 -8 -195.5t-21 -137t-29.5 -88t-33.5 -48.5
l-19.5 -16t-20.5 -13z" />
    <glyph glyph-name="ampersand" unicode="&#x26;" horiz-adv-x="500" 
d="M403 199q-1 -47 -8.5 -85t-28 -66t-57 -43t-95.5 -15q-74 0 -129 48q-28 25 -41 60.5t-13 80.5q0 35 8 70t31 61q11 11 22.5 20t24.5 18l-15 11.5t-15 13.5q-23 25 -30.5 58.5t-7.5 65.5q0 85 54 134q29 24 62 35.5t81 11.5q72 -2 120 -48l-50 -62q-17 14 -34 18.5
t-37 4.5q-47 -2 -78.5 -25t-33.5 -69q-2 -51 25 -85t78 -34h80v85h87v-85h82v-84h-82v-95zM227 73q36 2 54.5 13.5t26 30t8 42t0.5 49.5v86h-80q-64 -1 -93 -28.5t-29 -86.5q0 -51 30 -78.5t83 -27.5z" />
    <glyph glyph-name="bar" unicode="|" horiz-adv-x="171" 
d="M128 746v-823h-88v823h88z" />
    <glyph glyph-name="asterisk" unicode="*" horiz-adv-x="334" 
d="M69 770l51 -32v60l79 -1v-60l57 36l39 -66l-60 -38l59 -37l-41 -67l-54 34v-62l-79 1v60l-50 -31l-41 68l59 33l-60 35z" />
    <glyph glyph-name="less" unicode="&#x3c;" horiz-adv-x="304" 
d="M272 424v-106l-164 -75l164 -75v-106l-269 148v65z" />
    <glyph glyph-name="greater" unicode="&#x3e;" horiz-adv-x="312" 
d="M309 275v-65l-269 -148v106l164 75l-164 75v106z" />
    <glyph glyph-name="sterling" unicode="&#xa3;" horiz-adv-x="421" 
d="M76 442q0 59 17.5 103t50 73.5t77.5 45t101 16.5h58v-87h-57q-78 -2 -118.5 -43t-40.5 -123v-102h120v-87h-120v-150h227v-88h-315v238h-56v87h56v117z" />
    <glyph glyph-name="dagger" unicode="&#x2020;" horiz-adv-x="280" 
d="M187 671v-154h84v-88h-84v-621h-88v621h-91v88h91v154h88z" />
    <glyph glyph-name="daggerdbl" unicode="&#x2021;" horiz-adv-x="285" 
d="M189 671v-174h84v-88h-84v-322h84v-88h-84v-189h-88v189h-91v88h91v322h-91v88h91v174h88z" />
    <glyph glyph-name="florin" unicode="&#x192;" horiz-adv-x="370" 
d="M227 -6q0 -42 -7 -76t-25 -58t-49.5 -37t-80.5 -13h-54v88h54q21 0 35 3.5t22.5 14t12.5 29t4 49.5v404h-49v88h49q0 40 8.5 75.5t27.5 61.5t50.5 41.5t78.5 15.5h55v-88h-55q-27 -1 -42.5 -10.5t-23 -24t-9.5 -33t-2 -38.5h116v-88h-116v-404z" />
    <glyph glyph-name="tilde" unicode="&#x2dc;" horiz-adv-x="385" 
d="M26 640q58 58 105 58q16 0 35 -6t38 -18q14 -8 27 -13t22 -5q21 0 56 35l49 -48q-58 -59 -104 -59q-32 0 -73 23q-32 19 -49 19q-23 0 -57 -34z" />
    <glyph glyph-name="Atilde" unicode="&#xc3;" horiz-adv-x="616" 
d="M252 670h90l238 -670h-95l-44 124h-287l-41 -124h-94zM184 208h227l-114 325zM128 803q58 58 105 58q16 0 35 -6t38 -18q14 -8 27 -13t22 -5q21 0 56 35l49 -48q-58 -59 -104 -59q-32 0 -73 23q-32 19 -49 19q-23 0 -57 -34z" />
    <glyph glyph-name="ellipsis" unicode="&#x2026;" horiz-adv-x="420" 
d="M40 108h89v-108h-89v108zM166 108h88v-108h-88v108zM291 108h88v-108h-88v108z" />
    <glyph glyph-name="endash" unicode="&#x2013;" horiz-adv-x="490" 
d="M40 282h409v-88h-409v88z" />
    <glyph glyph-name="emdash" unicode="&#x2014;" horiz-adv-x="663" 
d="M40 282h582v-88h-582v88z" />
    <glyph glyph-name="plus" unicode="+" horiz-adv-x="390" 
d="M9 288h146v139h88v-139h137v-88h-137v-141h-88v141h-146v88z" />
    <glyph glyph-name="guillemotleft" unicode="&#xab;" horiz-adv-x="433" 
d="M9 243l225 225v-114l-112 -111l112 -112v-113zM173 243l225 225v-114l-111 -111l111 -112v-113z" />
    <glyph glyph-name="ordmasculine" unicode="&#xba;" horiz-adv-x="491" 
d="M244 77q39 0 64 13.5t39.5 36.5t19.5 53t5 63q0 37 -6 67.5t-20.5 53t-39 35t-62.5 12.5q-41 0 -65 -13.5t-37 -36.5t-17 -53t-4 -63q0 -35 5 -66t18.5 -53.5t37.5 -35.5t62 -13zM462 243q0 -56 -11.5 -102t-37 -80t-67.5 -52.5t-102 -18.5q-62 0 -103 20.5t-65.5 55.5
t-34.5 80.5t-10 96.5q0 55 10 102t35 81t65.5 53t102.5 19q65 0 107.5 -20t67 -54.5t34 -81t9.5 -99.5z" />
    <glyph glyph-name="guillemotright" unicode="&#xbb;" horiz-adv-x="438" 
d="M204 18v113l112 112l-112 111v114l225 -225zM40 18v113l111 112l-111 111v114l225 -225z" />
    <glyph glyph-name="dieresis" unicode="&#xa8;" horiz-adv-x="329" 
d="M40 670h88v-108h-88v108zM200 670h88v-108h-88v108z" />
    <glyph glyph-name="Acircumflex" unicode="&#xc2;" horiz-adv-x="613" 
d="M256 670h90l238 -670h-95l-44 124h-287l-41 -124h-94zM188 208h227l-114 325zM472 710h-102l-71 92l-71 -92h-102l128 166h88z" />
    <glyph glyph-name="Adieresis" unicode="&#xc4;" horiz-adv-x="621" 
d="M257 670h90l238 -670h-95l-44 124h-287l-41 -124h-94zM189 208h227l-114 325zM175 855h88v-108h-88v108zM335 855h88v-108h-88v108z" />
    <glyph glyph-name="Udieresis" unicode="&#xdc;" horiz-adv-x="587" 
d="M538 668v-365q0 -66 -4.5 -107t-12.5 -67.5t-19 -42t-24 -30.5q-18 -20 -40 -32.5t-46 -19.5t-50 -10t-52 -4q-53 2 -103.5 14.5t-85.5 51.5q-13 15 -24.5 30.5t-19.5 41.5t-13 67t-5 106v367h88v-365q1 -54 5.5 -95.5t20.5 -70t48.5 -44.5t88.5 -17q59 1 91 19t47 48
t18 70.5t4 87.5v367h88zM162 854h88v-108h-88v108zM322 854h88v-108h-88v108z" />
    <glyph glyph-name="Odieresis" unicode="&#xd6;" horiz-adv-x="590" 
d="M292 76q38 2 66.5 8.5t54.5 32.5q6 6 12.5 15.5t12.5 32t10 62t4 105.5v6q0 66 -4 106t-10 62.5t-12.5 32t-12.5 15.5q-26 25 -54.5 32.5t-65.5 8.5q-38 -1 -67.5 -8.5t-54.5 -32.5q-6 -6 -12.5 -15.5t-12.5 -32t-10 -62.5t-4 -106v-6q0 -66 4 -105.5t10 -62t12.5 -32
t12.5 -15.5q25 -26 54 -32.5t67 -8.5zM293 -10q-27 1 -53.5 4.5t-51 10.5t-46.5 19t-39 31q-13 15 -24.5 32.5t-19.5 47.5t-13 77t-5 120v6q0 73 5 120t13.5 76.5t19.5 47t24 32.5q35 39 83.5 52t104.5 14q54 -1 104.5 -14.5t84.5 -51.5q13 -14 24.5 -31.5t19.5 -47.5
t13 -77t5 -120v-6q0 -73 -5 -120t-13 -77t-19.5 -47.5t-24.5 -32.5q-18 -20 -40 -32t-47 -19t-50.5 -10t-49.5 -4zM165 856h88v-108h-88v108zM325 856h88v-108h-88v108z" />
    <glyph glyph-name="adieresis" unicode="&#xe4;" horiz-adv-x="504" 
d="M368 241q-9 -8 -29.5 -14t-45.5 -11t-49.5 -9t-41.5 -8q-39 -8 -59 -24t-20 -44q0 -23 9.5 -37t24 -22t32 -10.5t34.5 -0.5q28 2 54.5 10.5t46.5 24t32 39t12 56.5v50zM42 369q7 28 25.5 52t45 40.5t60.5 26t74 9.5q43 0 81 -9.5t66 -27.5t44.5 -45t16.5 -62l1 -353h-88
v48q-37 -29 -80.5 -43.5t-88.5 -14.5q-83 0 -127 40q-22 19 -33 45t-11 55q0 31 10.5 53.5t28.5 38.5t41 26t48 16q18 4 40 7t46.5 7t51 10t52.5 17q34 14 20 53q-10 30 -41.5 44.5t-77.5 14.5q-40 -2 -72.5 -15t-43.5 -44zM116 672h88v-108h-88v108zM276 672h88v-108h-88
v108z" />
    <glyph glyph-name="Edieresis" unicode="&#xcb;" horiz-adv-x="517" 
d="M468 670v-87h-342v-203h258v-84h-258v-208h342v-88h-429v670h429zM139 855h88v-108h-88v108zM299 855h88v-108h-88v108z" />
    <glyph glyph-name="AE" unicode="&#xc6;" horiz-adv-x="836" 
d="M804 669v-87h-342v-203h258v-84h-258v-208h342v-87h-429v153h-180l-83 -153h-97l364 669h425zM238 237h137v258z" />
    <glyph glyph-name="odieresis" unicode="&#xf6;" horiz-adv-x="512" 
d="M249 77q39 0 64 13.5t39.5 36.5t19.5 53t5 63q0 37 -6 67.5t-20.5 53t-39 35t-62.5 12.5q-41 0 -65 -13.5t-37 -36.5t-17 -53t-4 -63q0 -35 5 -66t18.5 -53.5t37.5 -35.5t62 -13zM467 243q0 -56 -11.5 -102t-37 -80t-67.5 -52.5t-102 -18.5q-62 0 -103 20.5t-65.5 55.5
t-34.5 80.5t-10 96.5q0 55 10 102t35 81t65.5 53t102.5 19q65 0 107.5 -20t67 -54.5t34 -81t9.5 -99.5zM123 672h88v-108h-88v108zM283 672h88v-108h-88v108z" />
    <glyph glyph-name="otilde" unicode="&#xf5;" horiz-adv-x="514" 
d="M252 77q39 0 64 13.5t39.5 36.5t19.5 53t5 63q0 37 -6 67.5t-20.5 53t-39 35t-62.5 12.5q-41 0 -65 -13.5t-37 -36.5t-17 -53t-4 -63q0 -35 5 -66t18.5 -53.5t37.5 -35.5t62 -13zM470 243q0 -56 -11.5 -102t-37 -80t-67.5 -52.5t-102 -18.5q-62 0 -103 20.5t-65.5 55.5
t-34.5 80.5t-10 96.5q0 55 10 102t35 81t65.5 53t102.5 19q65 0 107.5 -20t67 -54.5t34 -81t9.5 -99.5zM89 619q58 58 105 58q16 0 35 -6t38 -18q14 -8 27 -13t22 -5q21 0 56 35l49 -48q-58 -59 -104 -59q-32 0 -73 23q-32 19 -49 19q-23 0 -57 -34z" />
    <glyph glyph-name="Otilde" unicode="&#xd5;" horiz-adv-x="590" 
d="M292 76q38 2 66.5 8.5t54.5 32.5q6 6 12.5 15.5t12.5 32t10 62t4 105.5v6q0 66 -4 106t-10 62.5t-12.5 32t-12.5 15.5q-26 25 -54.5 32.5t-65.5 8.5q-38 -1 -67.5 -8.5t-54.5 -32.5q-6 -6 -12.5 -15.5t-12.5 -32t-10 -62.5t-4 -106v-6q0 -66 4 -105.5t10 -62t12.5 -32
t12.5 -15.5q25 -26 54 -32.5t67 -8.5zM293 -10q-27 1 -53.5 4.5t-51 10.5t-46.5 19t-39 31q-13 15 -24.5 32.5t-19.5 47.5t-13 77t-5 120v6q0 73 5 120t13.5 76.5t19.5 47t24 32.5q35 39 83.5 52t104.5 14q54 -1 104.5 -14.5t84.5 -51.5q13 -14 24.5 -31.5t19.5 -47.5
t13 -77t5 -120v-6q0 -73 -5 -120t-13 -77t-19.5 -47.5t-24.5 -32.5q-18 -20 -40 -32t-47 -19t-50.5 -10t-49.5 -4zM120 803q58 58 105 58q16 0 35 -6t38 -18q14 -8 27 -13t22 -5q21 0 56 35l49 -48q-58 -59 -104 -59q-32 0 -73 23q-32 19 -49 19q-23 0 -57 -34z" />
    <glyph glyph-name="atilde" unicode="&#xe3;" horiz-adv-x="490" 
d="M354 241q-9 -8 -29.5 -14t-45.5 -11t-49.5 -9t-41.5 -8q-39 -8 -59 -24t-20 -44q0 -23 9.5 -37t24 -22t32 -10.5t34.5 -0.5q28 2 54.5 10.5t46.5 24t32 39t12 56.5v50zM28 369q7 28 25.5 52t45 40.5t60.5 26t74 9.5q43 0 81 -9.5t66 -27.5t44.5 -45t16.5 -62l1 -353h-88
v48q-37 -29 -80.5 -43.5t-88.5 -14.5q-83 0 -127 40q-22 19 -33 45t-11 55q0 31 10.5 53.5t28.5 38.5t41 26t48 16q18 4 40 7t46.5 7t51 10t52.5 17q34 14 20 53q-10 30 -41.5 44.5t-77.5 14.5q-40 -2 -72.5 -15t-43.5 -44zM61 619q58 58 105 58q16 0 35 -6t38 -18
q14 -8 27 -13t22 -5q21 0 56 35l49 -48q-58 -59 -104 -59q-32 0 -73 23q-32 19 -49 19q-23 0 -57 -34z" />
    <glyph glyph-name="ae" unicode="&#xe6;" horiz-adv-x="843" 
d="M367 241q-9 -8 -29.5 -14t-45.5 -11t-49.5 -9t-41.5 -8q-39 -8 -59 -24t-20 -44q0 -23 9.5 -37t24 -22t32 -10.5t34.5 -0.5q28 2 54.5 10.5t46.5 24t32 39t12 56.5v50zM41 369q7 28 25.5 52t45 40.5t60.5 26t74 9.5q43 0 81 -9.5t66 -27.5t44.5 -45t16.5 -62l1 -353h-88
v48q-37 -29 -80.5 -43.5t-88.5 -14.5q-83 0 -127 40q-22 19 -33 45t-11 55q0 31 10.5 53.5t28.5 38.5t41 26t48 16q18 4 40 7t46.5 7t51 10t52.5 17q34 14 20 53q-10 30 -41.5 44.5t-77.5 14.5q-40 -2 -72.5 -15t-43.5 -44zM798 206h-342q3 -31 10 -55.5t21.5 -41
t37.5 -25.5t57 -9q41 0 63.5 14t33.5 31l94 -15q-21 -54 -71.5 -84.5t-119.5 -30.5q-61 0 -102 20t-66.5 54.5t-36.5 80.5t-11 98q0 55 10.5 101.5t35.5 80.5t66.5 53t103.5 19q61 0 102.5 -19t67 -53t36 -80.5t10.5 -101.5v-37zM582 412q-26 0 -48.5 -6.5t-40 -21.5
t-27.5 -39.5t-11 -60.5h254q0 37 -10 61.5t-27.5 39.5t-40.5 21t-49 6z" />
    <glyph glyph-name="edieresis" unicode="&#xeb;" horiz-adv-x="517" 
d="M470 206h-342q3 -31 10 -55.5t21.5 -41t37.5 -25.5t57 -9q41 0 63.5 14t33.5 31l94 -15q-21 -54 -71.5 -84.5t-119.5 -30.5q-61 0 -102 20t-66.5 54.5t-36.5 80.5t-11 98q0 55 10.5 101.5t35.5 80.5t66.5 53t103.5 19q61 0 102.5 -19t67 -53t36 -80.5t10.5 -101.5v-37z
M254 412q-26 0 -48.5 -6.5t-40 -21.5t-27.5 -39.5t-11 -60.5h254q0 37 -10 61.5t-27.5 39.5t-40.5 21t-49 6zM124 672h88v-108h-88v108zM284 672h88v-108h-88v108z" />
    <glyph glyph-name="idieresis" unicode="&#xef;" horiz-adv-x="162" 
d="M40 487h81v-487h-81v487zM-45 673h88v-108h-88v108zM115 673h88v-108h-88v108z" />
    <glyph glyph-name="Ntilde" unicode="&#xd1;" horiz-adv-x="596" 
d="M552 670v-670h-88l-336 504v-504h-88v670h88l336 -505v505h88zM127 803q58 58 105 58q16 0 35 -6t38 -18q14 -8 27 -13t22 -5q21 0 56 35l49 -48q-58 -59 -104 -59q-32 0 -73 23q-32 19 -49 19q-23 0 -57 -34z" />
    <glyph glyph-name="Idieresis" unicode="&#xcf;" horiz-adv-x="172" 
d="M128 670v-670h-88v670h88zM-38 854h88v-108h-88v108zM122 854h88v-108h-88v108z" />
    <glyph glyph-name="equal" unicode="=" horiz-adv-x="453" 
d="M40 223h371v-88h-371v88zM40 371h371v-88h-371v88z" />
    <glyph glyph-name="plusminus" unicode="&#xb1;" horiz-adv-x="412" 
d="M20 351h149v145h81v-145h140v-79h-140v-145h-81v145h-149v79zM20 79h370v-79h-370v79z" />
    <glyph glyph-name="periodcentered" unicode="&#xb7;" horiz-adv-x="187" 
d="M40 298h104v-112h-104v112z" />
    <glyph glyph-name="divide" unicode="&#xf7;" horiz-adv-x="422" 
d="M7 282h409v-78h-409v78zM163 108h88v-108h-88v108zM163 487h88v-108h-88v108z" />
    <glyph glyph-name="multiply" unicode="&#xd7;" horiz-adv-x="413" 
d="M30 364l59 59l121 -121l118 118l57 -58l-118 -118l117 -117l-58 -59l-116 117l-120 -120l-58 59l119 120z" />
    <glyph glyph-name="quotedblleft" unicode="&#x201c;" horiz-adv-x="277" 
d="M237 625q-20 -9 -26.5 -20t-6.5 -23v-21h33v-108h-88v97q0 24 3 44t12.5 36.5t27 29t45.5 20.5v-55zM122 625q-20 -9 -26.5 -20t-6.5 -23v-21h33v-108h-88v97q0 24 3 44t12.5 36.5t27 29t45.5 20.5v-55z" />
    <glyph glyph-name="quotedblright" unicode="&#x201d;" horiz-adv-x="277" 
d="M40 508q20 9 26.5 20t6.5 23v21h-33v108h88v-97q0 -24 -3 -44t-12.5 -36.5t-27 -29t-45.5 -20.5v55zM155 508q20 9 26.5 20t6.5 23v21h-33v108h88v-97q0 -24 -3 -44t-12.5 -36.5t-27 -29t-45.5 -20.5v55z" />
    <glyph glyph-name="bullet" unicode="&#x2022;" horiz-adv-x="251" 
d="M28 241q0 41 28 69.5t69 28.5t69.5 -28.5t28.5 -69.5t-28.5 -69t-69.5 -28t-69 28t-28 69z" />
    <glyph glyph-name="acute" unicode="&#xb4;" horiz-adv-x="226" 
d="M215 689l-119 -166h-81l97 166h103z" />
    <glyph glyph-name="Aacute" unicode="&#xc1;" horiz-adv-x="623" 
d="M259 670h90l238 -670h-95l-44 124h-287l-41 -124h-94zM191 208h227l-114 325zM467 895l-119 -166h-81l97 166h103z" />
    <glyph glyph-name="Uacute" unicode="&#xda;" horiz-adv-x="590" 
d="M540 668v-365q0 -66 -4.5 -107t-12.5 -67.5t-19 -42t-24 -30.5q-18 -20 -40 -32.5t-46 -19.5t-50 -10t-52 -4q-53 2 -103.5 14.5t-85.5 51.5q-13 15 -24.5 30.5t-19.5 41.5t-13 67t-5 106v367h88v-365q1 -54 5.5 -95.5t20.5 -70t48.5 -44.5t88.5 -17q59 1 91 19t47 48
t18 70.5t4 87.5v367h88zM443 895l-119 -166h-81l97 166h103z" />
    <glyph glyph-name="aacute" unicode="&#xe1;" horiz-adv-x="502" 
d="M366 241q-9 -8 -29.5 -14t-45.5 -11t-49.5 -9t-41.5 -8q-39 -8 -59 -24t-20 -44q0 -23 9.5 -37t24 -22t32 -10.5t34.5 -0.5q28 2 54.5 10.5t46.5 24t32 39t12 56.5v50zM40 369q7 28 25.5 52t45 40.5t60.5 26t74 9.5q43 0 81 -9.5t66 -27.5t44.5 -45t16.5 -62l1 -353h-88
v48q-37 -29 -80.5 -43.5t-88.5 -14.5q-83 0 -127 40q-22 19 -33 45t-11 55q0 31 10.5 53.5t28.5 38.5t41 26t48 16q18 4 40 7t46.5 7t51 10t52.5 17q34 14 20 53q-10 30 -41.5 44.5t-77.5 14.5q-40 -2 -72.5 -15t-43.5 -44zM388 710l-119 -166h-81l97 166h103z" />
    <glyph glyph-name="Eacute" unicode="&#xc9;" horiz-adv-x="499" 
d="M460 670v-87h-342v-203h258v-84h-258v-208h342v-88h-429v670h429zM406 895l-119 -166h-81l97 166h103z" />
    <glyph glyph-name="Oacute" unicode="&#xd3;" horiz-adv-x="590" 
d="M291 76q38 2 66.5 8.5t54.5 32.5q6 6 12.5 15.5t12.5 32t10 62t4 105.5v6q0 66 -4 106t-10 62.5t-12.5 32t-12.5 15.5q-26 25 -54.5 32.5t-65.5 8.5q-38 -1 -67.5 -8.5t-54.5 -32.5q-6 -6 -12.5 -15.5t-12.5 -32t-10 -62.5t-4 -106v-6q0 -66 4 -105.5t10 -62t12.5 -32
t12.5 -15.5q25 -26 54 -32.5t67 -8.5zM292 -10q-27 1 -53.5 4.5t-51 10.5t-46.5 19t-39 31q-13 15 -24.5 32.5t-19.5 47.5t-13 77t-5 120v6q0 73 5 120t13.5 76.5t19.5 47t24 32.5q35 39 83.5 52t104.5 14q54 -1 104.5 -14.5t84.5 -51.5q13 -14 24.5 -31.5t19.5 -47.5
t13 -77t5 -120v-6q0 -73 -5 -120t-13 -77t-19.5 -47.5t-24.5 -32.5q-18 -20 -40 -32t-47 -19t-50.5 -10t-49.5 -4zM449 895l-119 -166h-81l97 166h103z" />
    <glyph glyph-name="uacute" unicode="&#xfa;" horiz-adv-x="514" 
d="M40 486h88v-267q0 -28 3.5 -47.5t8.5 -33t12 -22t13 -14.5q12 -11 33 -22t54 -11q31 1 52 11.5t33 21.5q6 6 13 14t13 21t9.5 32.5t3.5 49.5v267h88v-486h-88v57q-8 -15 -21.5 -27.5t-30.5 -21.5t-36 -14t-36 -5q-55 0 -95 16t-66 46t-38.5 72.5t-12.5 95.5v267zM408 710
l-119 -166h-81l97 166h103z" />
    <glyph glyph-name="udieresis" unicode="&#xfc;" horiz-adv-x="512" 
d="M39 486h88v-267q0 -28 3.5 -47.5t8.5 -33t12 -22t13 -14.5q12 -11 33 -22t54 -11q31 1 52 11.5t33 21.5q6 6 13 14t13 21t9.5 32.5t3.5 49.5v267h88v-486h-88v57q-8 -15 -21.5 -27.5t-30.5 -21.5t-36 -14t-36 -5q-55 0 -95 16t-66 46t-38.5 72.5t-12.5 95.5v267zM126 672
h88v-108h-88v108zM286 672h88v-108h-88v108z" />
    <glyph glyph-name="yacute" unicode="&#xfd;" horiz-adv-x="512" 
d="M39 486h88v-271q0 -71 27.5 -105t96.5 -34q71 0 98 35.5t27 101.5v273h88v-431q0 -54 -11.5 -99.5t-37 -77.5t-66.5 -50t-101 -18q-75 0 -127.5 33.5t-72.5 85.5l93 10q8 -10 16.5 -18t20 -13t28 -8t42.5 -3q37 0 60 10t37 29.5t21 48t10 65.5q-24 -31 -53.5 -45.5
t-71.5 -14.5q-104 0 -157.5 61t-54.5 164v271zM405 710l-119 -166h-81l97 166h103z" />
    <glyph glyph-name="ydieresis" unicode="&#xff;" horiz-adv-x="517" 
d="M42 486h88v-271q0 -71 27.5 -105t96.5 -34q71 0 98 35.5t27 101.5v273h88v-431q0 -54 -11.5 -99.5t-37 -77.5t-66.5 -50t-101 -18q-75 0 -127.5 33.5t-72.5 85.5l93 10q8 -10 16.5 -18t20 -13t28 -8t42.5 -3q37 0 60 10t37 29.5t21 48t10 65.5q-24 -31 -53.5 -45.5
t-71.5 -14.5q-104 0 -157.5 61t-54.5 164v271zM125 673h88v-108h-88v108zM285 673h88v-108h-88v108z" />
    <glyph glyph-name="eacute" unicode="&#xe9;" horiz-adv-x="519" 
d="M472 206h-342q3 -31 10 -55.5t21.5 -41t37.5 -25.5t57 -9q41 0 63.5 14t33.5 31l94 -15q-21 -54 -71.5 -84.5t-119.5 -30.5q-61 0 -102 20t-66.5 54.5t-36.5 80.5t-11 98q0 55 10.5 101.5t35.5 80.5t66.5 53t103.5 19q61 0 102.5 -19t67 -53t36 -80.5t10.5 -101.5v-37z
M256 412q-26 0 -48.5 -6.5t-40 -21.5t-27.5 -39.5t-11 -60.5h254q0 37 -10 61.5t-27.5 39.5t-40.5 21t-49 6zM409 710l-119 -166h-81l97 166h103z" />
    <glyph glyph-name="cedilla" unicode="&#xb8;" horiz-adv-x="200" 
d="M184 -16l-73 -191h-97l86 191h84z" />
    <glyph glyph-name="ccedilla" unicode="&#xe7;" horiz-adv-x="487" 
d="M251 497q87 0 136 -35.5t65 -90.5l-94 -9q-14 28 -46 39t-61 11q-41 0 -66 -14t-38.5 -37t-18 -53.5t-4.5 -63.5q0 -36 5.5 -66.5t19.5 -52.5t39 -34.5t63 -12.5q14 0 30.5 2.5t31.5 8.5t27 15.5t18 22.5l94 -9q-16 -56 -65 -91t-136 -35q-65 0 -106.5 20t-65.5 54.5
t-34.5 80t-13.5 97.5q0 57 10.5 103.5t36 79.5t68 51.5t105.5 18.5zM295 4l-73 -191h-97l86 191h84z" />
    <glyph glyph-name="Ccedilla" unicode="&#xc7;" horiz-adv-x="534" 
d="M284 -8q-30 1 -53 4t-46 9q-57 18 -88 52.5t-45.5 79t-17 95.5t-2.5 102v5q0 73 5 120t13 77t19.5 47.5t25.5 32.5q18 19 40 32t47 20t50 10t49 3q54 -1 104.5 -14t85.5 -51q11 -14 21.5 -29.5t18.5 -40.5l-91 -10q-9 20 -24 31.5t-33.5 17.5t-39 8t-39.5 3
q-39 -2 -68 -8.5t-54 -32.5q-6 -6 -12.5 -16t-12.5 -32.5t-10 -62t-4 -105.5v-5q0 -66 4 -105.5t10 -62.5t12.5 -32.5t12.5 -15.5q26 -26 54.5 -33t66.5 -9q21 1 42 4t40 9.5t33.5 18.5t21.5 31l91 -12q-17 -48 -51 -78t-81 -44q-42 -12 -95 -13zM314 6l-73 -191h-97l86 191
h84z" />
    <glyph glyph-name="oacute" unicode="&#xf3;" horiz-adv-x="514" 
d="M252 77q39 0 64 13.5t39.5 36.5t19.5 53t5 63q0 37 -6 67.5t-20.5 53t-39 35t-62.5 12.5q-41 0 -65 -13.5t-37 -36.5t-17 -53t-4 -63q0 -35 5 -66t18.5 -53.5t37.5 -35.5t62 -13zM470 243q0 -56 -11.5 -102t-37 -80t-67.5 -52.5t-102 -18.5q-62 0 -103 20.5t-65.5 55.5
t-34.5 80.5t-10 96.5q0 55 10 102t35 81t65.5 53t102.5 19q65 0 107.5 -20t67 -54.5t34 -81t9.5 -99.5zM413 711l-119 -166h-81l97 166h103z" />
    <glyph glyph-name="degree" unicode="&#xb0;" horiz-adv-x="347" 
d="M31 545q0 65 36.5 99.5t104.5 34.5q69 0 106.5 -34.5t37.5 -99.5v-27q0 -65 -37 -101t-106 -36q-66 0 -104 33.5t-38 102.5v28zM98 518q0 -34 19.5 -52t55.5 -18q33 0 54 18.5t21 53.5v28q0 29 -21.5 48.5t-53.5 19.5t-53.5 -19t-21.5 -54v-25z" />
    <glyph glyph-name="backslash" unicode="\" horiz-adv-x="314" 
d="M97 670l211 -670h-92l-210 670h91z" />
    <glyph glyph-name="grave" unicode="`" horiz-adv-x="226" 
d="M10 689h104l97 -166h-81z" />
    <glyph glyph-name="Agrave" unicode="&#xc0;" horiz-adv-x="631" 
d="M267 670h90l238 -670h-95l-44 124h-287l-41 -124h-94zM199 208h227l-114 325zM150 895h104l97 -166h-81z" />
    <glyph glyph-name="Ugrave" unicode="&#xd9;" horiz-adv-x="590" 
d="M540 668v-365q0 -66 -4.5 -107t-12.5 -67.5t-19 -42t-24 -30.5q-18 -20 -40 -32.5t-46 -19.5t-50 -10t-52 -4q-53 2 -103.5 14.5t-85.5 51.5q-13 15 -24.5 30.5t-19.5 41.5t-13 67t-5 106v367h88v-365q1 -54 5.5 -95.5t20.5 -70t48.5 -44.5t88.5 -17q59 1 91 19t47 48
t18 70.5t4 87.5v367h88zM140 895h104l97 -166h-81z" />
    <glyph glyph-name="Ograve" unicode="&#xd2;" horiz-adv-x="585" 
d="M289 76q38 2 66.5 8.5t54.5 32.5q6 6 12.5 15.5t12.5 32t10 62t4 105.5v6q0 66 -4 106t-10 62.5t-12.5 32t-12.5 15.5q-26 25 -54.5 32.5t-65.5 8.5q-38 -1 -67.5 -8.5t-54.5 -32.5q-6 -6 -12.5 -15.5t-12.5 -32t-10 -62.5t-4 -106v-6q0 -66 4 -105.5t10 -62t12.5 -32
t12.5 -15.5q25 -26 54 -32.5t67 -8.5zM290 -10q-27 1 -53.5 4.5t-51 10.5t-46.5 19t-39 31q-13 15 -24.5 32.5t-19.5 47.5t-13 77t-5 120v6q0 73 5 120t13.5 76.5t19.5 47t24 32.5q35 39 83.5 52t104.5 14q54 -1 104.5 -14.5t84.5 -51.5q13 -14 24.5 -31.5t19.5 -47.5
t13 -77t5 -120v-6q0 -73 -5 -120t-13 -77t-19.5 -47.5t-24.5 -32.5q-18 -20 -40 -32t-47 -19t-50.5 -10t-49.5 -4zM141 895h104l97 -166h-81z" />
    <glyph glyph-name="Igrave" unicode="&#xcc;" horiz-adv-x="172" 
d="M128 670v-670h-88v670h88zM-75 895h104l97 -166h-81z" />
    <glyph glyph-name="Iacute" unicode="&#xcd;" horiz-adv-x="172" 
d="M128 670v-670h-88v670h88zM242 895l-119 -166h-81l97 166h103z" />
    <glyph glyph-name="Egrave" unicode="&#xc8;" horiz-adv-x="497" 
d="M461 670v-87h-342v-203h258v-84h-258v-208h342v-88h-429v670h429zM104 895h104l97 -166h-81z" />
    <glyph glyph-name="egrave" unicode="&#xe8;" horiz-adv-x="519" 
d="M471 206h-342q3 -31 10 -55.5t21.5 -41t37.5 -25.5t57 -9q41 0 63.5 14t33.5 31l94 -15q-21 -54 -71.5 -84.5t-119.5 -30.5q-61 0 -102 20t-66.5 54.5t-36.5 80.5t-11 98q0 55 10.5 101.5t35.5 80.5t66.5 53t103.5 19q61 0 102.5 -19t67 -53t36 -80.5t10.5 -101.5v-37z
M255 412q-26 0 -48.5 -6.5t-40 -21.5t-27.5 -39.5t-11 -60.5h254q0 37 -10 61.5t-27.5 39.5t-40.5 21t-49 6zM108 710h104l97 -166h-81z" />
    <glyph glyph-name="ograve" unicode="&#xf2;" horiz-adv-x="514" 
d="M252 77q39 0 64 13.5t39.5 36.5t19.5 53t5 63q0 37 -6 67.5t-20.5 53t-39 35t-62.5 12.5q-41 0 -65 -13.5t-37 -36.5t-17 -53t-4 -63q0 -35 5 -66t18.5 -53.5t37.5 -35.5t62 -13zM470 243q0 -56 -11.5 -102t-37 -80t-67.5 -52.5t-102 -18.5q-62 0 -103 20.5t-65.5 55.5
t-34.5 80.5t-10 96.5q0 55 10 102t35 81t65.5 53t102.5 19q65 0 107.5 -20t67 -54.5t34 -81t9.5 -99.5zM102 710h104l97 -166h-81z" />
    <glyph glyph-name="ugrave" unicode="&#xf9;" horiz-adv-x="514" 
d="M40 486h88v-267q0 -28 3.5 -47.5t8.5 -33t12 -22t13 -14.5q12 -11 33 -22t54 -11q31 1 52 11.5t33 21.5q6 6 13 14t13 21t9.5 32.5t3.5 49.5v267h88v-486h-88v57q-8 -15 -21.5 -27.5t-30.5 -21.5t-36 -14t-36 -5q-55 0 -95 16t-66 46t-38.5 72.5t-12.5 95.5v267zM109 710
h104l97 -166h-81z" />
    <glyph glyph-name="underscore" unicode="_" horiz-adv-x="488" 
d="M40 -62h407v-87h-407v87z" />
    <glyph glyph-name="slash" unicode="/" horiz-adv-x="347" 
d="M6 -109l244 779h92l-245 -779h-91z" />
    <glyph glyph-name="period" unicode="." horiz-adv-x="175" 
d="M40 108h92v-108h-92v108z" />
    <glyph glyph-name="quotedblbase" unicode="&#x201e;" horiz-adv-x="277" 
d="M40 105h89v-97q0 -24 -3.5 -44t-13 -36.5t-27 -29t-45.5 -20.5v55q20 9 26.5 20t6.5 23v21h-33v108zM154 105h89v-97q0 -24 -3.5 -44t-13 -36.5t-27 -29t-45.5 -20.5v55q20 9 26.5 20t6.5 23v21h-33v108z" />
    <glyph glyph-name="quotesinglbase" unicode="&#x201a;" horiz-adv-x="157" 
d="M40 148q28 -8 45.5 -20t27 -29t12.5 -39.5t3 -50.5v-97h-88v107h33v21q0 22 -6.5 33t-26.5 20v55z" />
    <glyph glyph-name="quoteleft" unicode="&#x2018;" horiz-adv-x="158" 
d="M116 615q-20 -9 -26.5 -19.5t-6.5 -20.5v-21h33v-108h-89v97q0 22 3.5 41.5t13 36t27 29t45.5 20.5v-55z" />
    <glyph glyph-name="quoteright" unicode="&#x2019;" horiz-adv-x="156" 
d="M40 670h88v-97q0 -22 -3 -41.5t-12.5 -36t-27 -29t-45.5 -20.5v55q20 10 26.5 20t6.5 20v22h-33v107z" />
    <glyph glyph-name="guilsinglright" unicode="&#x203a;" horiz-adv-x="266" 
d="M40 468l225 -225l-225 -225v125l106 100l-106 102v123z" />
    <glyph glyph-name="asciitilde" unicode="~" horiz-adv-x="494" 
d="M27 305q45 45 74 61q12 7 27 9.5t33 2.5q37 0 101 -29q22 -10 40.5 -15.5t28.5 -5.5q33 0 78 46l56 -56q-24 -28 -42 -42.5t-30 -21.5q-25 -13 -62 -13q-18 0 -44 8t-58 22q-22 9 -40.5 15t-28.5 6q-33 0 -78 -41z" />
    <glyph glyph-name="registered" unicode="&#xae;" horiz-adv-x="567" 
d="M344 394q0 18 -10 29.5t-28 11.5h-79v-83h77q20 1 30 12.5t10 29.5zM334 179l-69 116h-38v-116h-64v314h145q21 -1 39.5 -6t31.5 -17q10 -11 19 -27.5t9 -51.5q0 -28 -9 -45t-19 -28q-8 -8 -21.5 -14t-18.5 -6l73 -119h-78zM284 76q38 2 66.5 8.5t54.5 32.5
q6 6 12.5 15.5t12.5 32t10 62t4 105.5v6q0 66 -4 106t-10 62.5t-12.5 32t-12.5 15.5q-26 25 -54.5 32.5t-65.5 8.5q-38 -1 -67.5 -8.5t-54.5 -32.5q-6 -6 -12.5 -15.5t-12.5 -32t-10 -62.5t-4 -106v-6q0 -66 4 -105.5t10 -62t12.5 -32t12.5 -15.5q25 -26 54 -32.5t67 -8.5z
M285 -10q-27 1 -53.5 4.5t-51 10.5t-46.5 19t-39 31q-13 15 -24.5 32.5t-19.5 47.5t-13 77t-5 120v6q0 73 5 120t13.5 76.5t19.5 47t24 32.5q35 39 83.5 52t104.5 14q54 -1 104.5 -14.5t84.5 -51.5q13 -14 24.5 -31.5t19.5 -47.5t13 -77t5 -120v-6q0 -73 -5 -120t-13 -77
t-19.5 -47.5t-24.5 -32.5q-18 -20 -40 -32t-47 -19t-50.5 -10t-49.5 -4z" />
    <glyph glyph-name="ocircumflex" unicode="&#xf4;" horiz-adv-x="514" 
d="M252 77q39 0 64 13.5t39.5 36.5t19.5 53t5 63q0 37 -6 67.5t-20.5 53t-39 35t-62.5 12.5q-41 0 -65 -13.5t-37 -36.5t-17 -53t-4 -63q0 -35 5 -66t18.5 -53.5t37.5 -35.5t62 -13zM470 243q0 -56 -11.5 -102t-37 -80t-67.5 -52.5t-102 -18.5q-62 0 -103 20.5t-65.5 55.5
t-34.5 80.5t-10 96.5q0 55 10 102t35 81t65.5 53t102.5 19q65 0 107.5 -20t67 -54.5t34 -81t9.5 -99.5zM431 545h-102l-71 92l-71 -92h-102l128 166h88z" />
    <glyph glyph-name="acircumflex" unicode="&#xe2;" horiz-adv-x="500" 
d="M364 241q-9 -8 -29.5 -14t-45.5 -11t-49.5 -9t-41.5 -8q-39 -8 -59 -24t-20 -44q0 -23 9.5 -37t24 -22t32 -10.5t34.5 -0.5q28 2 54.5 10.5t46.5 24t32 39t12 56.5v50zM38 369q7 28 25.5 52t45 40.5t60.5 26t74 9.5q43 0 81 -9.5t66 -27.5t44.5 -45t16.5 -62l1 -353h-88
v48q-37 -29 -80.5 -43.5t-88.5 -14.5q-83 0 -127 40q-22 19 -33 45t-11 55q0 31 10.5 53.5t28.5 38.5t41 26t48 16q18 4 40 7t46.5 7t51 10t52.5 17q34 14 20 53q-10 30 -41.5 44.5t-77.5 14.5q-40 -2 -72.5 -15t-43.5 -44zM409 525h-102l-71 92l-71 -92h-102l128 166h88z
" />
    <glyph glyph-name="icircumflex" unicode="&#xee;" horiz-adv-x="164" 
d="M41 487h81v-487h-81v487zM256 525h-102l-71 92l-71 -92h-102l128 166h88z" />
    <glyph glyph-name="igrave" unicode="&#xec;" horiz-adv-x="154" 
d="M40 487h81v-487h-81v487zM-80 710h104l97 -166h-81z" />
    <glyph glyph-name="iacute" unicode="&#xed;" horiz-adv-x="160" 
d="M37 487h81v-487h-81v487zM238 710l-119 -166h-81l97 166h103z" />
    <glyph glyph-name="agrave" unicode="&#xe0;" horiz-adv-x="504" 
d="M368 241q-9 -8 -29.5 -14t-45.5 -11t-49.5 -9t-41.5 -8q-39 -8 -59 -24t-20 -44q0 -23 9.5 -37t24 -22t32 -10.5t34.5 -0.5q28 2 54.5 10.5t46.5 24t32 39t12 56.5v50zM42 369q7 28 25.5 52t45 40.5t60.5 26t74 9.5q43 0 81 -9.5t66 -27.5t44.5 -45t16.5 -62l1 -353h-88
v48q-37 -29 -80.5 -43.5t-88.5 -14.5q-83 0 -127 40q-22 19 -33 45t-11 55q0 31 10.5 53.5t28.5 38.5t41 26t48 16q18 4 40 7t46.5 7t51 10t52.5 17q34 14 20 53q-10 30 -41.5 44.5t-77.5 14.5q-40 -2 -72.5 -15t-43.5 -44zM97 711h104l97 -166h-81z" />
    <glyph glyph-name="Yacute" unicode="&#xdd;" horiz-adv-x="493" 
d="M480 670l-197 -348v-322h-88v322l-199 348h98l145 -270l144 270h97zM391 895l-119 -166h-81l97 166h103z" />
    <glyph glyph-name="Ucircumflex" unicode="&#xdb;" horiz-adv-x="587" 
d="M537 668v-365q0 -66 -4.5 -107t-12.5 -67.5t-19 -42t-24 -30.5q-18 -20 -40 -32.5t-46 -19.5t-50 -10t-52 -4q-53 2 -103.5 14.5t-85.5 51.5q-13 15 -24.5 30.5t-19.5 41.5t-13 67t-5 106v367h88v-365q1 -54 5.5 -95.5t20.5 -70t48.5 -44.5t88.5 -17q59 1 91 19t47 48
t18 70.5t4 87.5v367h88zM461 729h-102l-71 92l-71 -92h-102l128 166h88z" />
    <glyph glyph-name="Icircumflex" unicode="&#xce;" horiz-adv-x="172" 
d="M128 670v-670h-88v670h88zM263 710h-102l-71 92l-71 -92h-102l128 166h88z" />
    <glyph glyph-name="Ocircumflex" unicode="&#xd4;" horiz-adv-x="590" 
d="M292 76q38 2 66.5 8.5t54.5 32.5q6 6 12.5 15.5t12.5 32t10 62t4 105.5v6q0 66 -4 106t-10 62.5t-12.5 32t-12.5 15.5q-26 25 -54.5 32.5t-65.5 8.5q-38 -1 -67.5 -8.5t-54.5 -32.5q-6 -6 -12.5 -15.5t-12.5 -32t-10 -62.5t-4 -106v-6q0 -66 4 -105.5t10 -62t12.5 -32
t12.5 -15.5q25 -26 54 -32.5t67 -8.5zM293 -10q-27 1 -53.5 4.5t-51 10.5t-46.5 19t-39 31q-13 15 -24.5 32.5t-19.5 47.5t-13 77t-5 120v6q0 73 5 120t13.5 76.5t19.5 47t24 32.5q35 39 83.5 52t104.5 14q54 -1 104.5 -14.5t84.5 -51.5q13 -14 24.5 -31.5t19.5 -47.5
t13 -77t5 -120v-6q0 -73 -5 -120t-13 -77t-19.5 -47.5t-24.5 -32.5q-18 -20 -40 -32t-47 -19t-50.5 -10t-49.5 -4zM465 709h-102l-71 92l-71 -92h-102l128 166h88z" />
    <glyph glyph-name="ecircumflex" unicode="&#xea;" horiz-adv-x="517" 
d="M472 206h-342q3 -31 10 -55.5t21.5 -41t37.5 -25.5t57 -9q41 0 63.5 14t33.5 31l94 -15q-21 -54 -71.5 -84.5t-119.5 -30.5q-61 0 -102 20t-66.5 54.5t-36.5 80.5t-11 98q0 55 10.5 101.5t35.5 80.5t66.5 53t103.5 19q61 0 102.5 -19t67 -53t36 -80.5t10.5 -101.5v-37z
M256 412q-26 0 -48.5 -6.5t-40 -21.5t-27.5 -39.5t-11 -60.5h254q0 37 -10 61.5t-27.5 39.5t-40.5 21t-49 6zM429 545h-102l-71 92l-71 -92h-102l128 166h88z" />
    <glyph glyph-name="Ecircumflex" unicode="&#xca;" horiz-adv-x="514" 
d="M460 670v-87h-342v-203h258v-84h-258v-208h342v-88h-429v670h429zM431 730h-102l-71 92l-71 -92h-102l128 166h88z" />
    <glyph glyph-name="section" unicode="&#xa7;" horiz-adv-x="537" 
d="M404 239q3 19 -5.5 33t-23.5 24.5t-34.5 17.5t-40.5 12q-16 3 -32 5t-33 2q-32 0 -58.5 -8t-39.5 -28q-5 -7 -10.5 -22.5t-5.5 -35.5q0 -15 5.5 -30t20.5 -27.5t41 -20t67 -7.5q50 0 79 10t44 23.5t19.5 28t6.5 23.5zM169 83q-11 3 -34 12t-46 27t-40.5 45.5t-17.5 67.5
q0 48 20.5 86t60.5 63q-17 10 -29 21q-25 26 -35.5 52.5t-8.5 62.5q2 33 17.5 59t30.5 42q15 18 35.5 29.5t42.5 18t44.5 9t42.5 2.5q27 0 47 -3t40 -8q59 -19 89 -60t40 -99h-88q-6 24 -18 39.5t-29 25.5t-37 14t-42 5q-20 -1 -42 -5t-40.5 -13t-30.5 -23.5t-12 -35.5
q0 -24 11.5 -39t28.5 -24.5t36.5 -15.5t36.5 -10q3 0 22.5 -4.5l43.5 -10.5l45.5 -11.5t27.5 -8.5q17 -6 37.5 -17t37.5 -31q19 -22 27.5 -47.5t8.5 -51.5q0 -29 -9 -57t-25 -48q-7 -9 -15.5 -16l-16.5 -13q32 -24 48.5 -58.5t16.5 -72.5q0 -26 -8 -52t-25 -49
q-19 -24 -47.5 -37.5t-57 -20.5t-54 -9t-38.5 -2q-29 1 -50.5 4t-41.5 8q-22 6 -44.5 16t-43.5 31q-23 24 -33.5 48.5t-16.5 59.5h82q4 -16 9.5 -24.5t18.5 -19.5q24 -21 52.5 -27.5t66.5 -7.5q19 1 43 4.5t46 12t37.5 24t16.5 40.5q1 29 -13 47t-35 27.5t-46.5 13
t-47.5 3.5q-29 0 -50.5 3.5t-41.5 8.5z" />
    <glyph glyph-name="W" unicode="W" horiz-adv-x="921" 
d="M122 670l157 -534l133 534h95l159 -534l133 534h95l-181 -670h-91l-159 507l-137 -507h-91l-210 670h97z" />
    <glyph glyph-name="Aring" unicode="&#xc5;" horiz-adv-x="598" 
d="M173 854q0 52 35 87q36 36 88 36q50 0 86 -36t36 -87t-36 -87q-37 -37 -86 -37q-51 0 -88 37q-35 35 -35 87zM296 910q-24 0 -40.5 -16.5t-16.5 -39.5t17 -39.5t40 -16.5t39.5 16.5t16.5 39.5t-16.5 39.5t-39.5 16.5zM249 670h90l238 -670h-95l-44 124h-287l-41 -124h-94
zM181 208h227l-114 325z" />
    <glyph glyph-name="Eth" unicode="&#xd0;" horiz-adv-x="624" 
d="M83 670h255q25 0 52 -3.5t52.5 -11t48 -19.5t39.5 -29q13 -15 24 -32t19 -46t12.5 -75t4.5 -118v-7q0 -70 -4.5 -114.5t-12.5 -73t-19 -45.5t-24 -32q-38 -38 -87.5 -51t-99.5 -13h-260v201h-54v88h54v381zM239 289v-88h-68v-122h167q41 0 69.5 6.5t54.5 32.5q5 6 12 16
t13 32.5t10 61t4 101.5v7q0 64 -4 104t-10 63t-13 33t-12 16q-26 26 -57 32.5t-67 6.5h-167v-302h68z" />
    <glyph glyph-name="ucircumflex" unicode="&#xfb;" horiz-adv-x="514" 
d="M40 486h88v-267q0 -28 3.5 -47.5t8.5 -33t12 -22t13 -14.5q12 -11 33 -22t54 -11q31 1 52 11.5t33 21.5q6 6 13 14t13 21t9.5 32.5t3.5 49.5v267h88v-486h-88v57q-8 -15 -21.5 -27.5t-30.5 -21.5t-36 -14t-36 -5q-55 0 -95 16t-66 46t-38.5 72.5t-12.5 95.5v267zM430 545
h-102l-71 92l-71 -92h-102l128 166h88z" />
    <glyph glyph-name="exclam" unicode="!" horiz-adv-x="172" 
d="M42 670h88v-494h-88v494zM40 108h92v-108h-92v108z" />
    <glyph glyph-name="twosuperior" unicode="&#xb2;" horiz-adv-x="288" 
d="M32 558q0 58 31 89.5t79 31.5q50 0 80.5 -29.5t30.5 -77.5q0 -42 -31 -82l-98 -117h129v-68h-221v57l137 166q17 22 17 40q0 45 -44 47q-43 -1 -43 -57h-67z" />
    <glyph glyph-name="threesuperior" unicode="&#xb3;" horiz-adv-x="273" 
d="M28 564q0 55 25.5 85t79.5 30q51 0 79 -28.5t28 -70.5v-16q-1 -20 -6 -41t-22 -35q12 -13 20 -31t8 -38v-18q0 -48 -29 -75.5t-78 -27.5q-44 0 -74.5 29t-30.5 87h63q1 -52 42 -52q42 0 42 40v17q0 13 -11.5 22t-25.5 9h-31v76h31q16 0 26 11.5t11 26.5v15q-1 33 -42 33
q-42 0 -41 -48h-64z" />
    <glyph glyph-name="onesuperior" unicode="&#xb9;" horiz-adv-x="182" 
d="M73 669h67v-364h-67v264l-62 -69v102z" />
    <glyph glyph-name="cent" unicode="&#xa2;" horiz-adv-x="454" 
d="M283 590v-97q59 -9 101.5 -41.5t57.5 -80.5l-94 -9q-9 18 -27 29t-38 16v-324q21 5 39 16t26 28l94 -9q-15 -48 -57.5 -80.5t-101.5 -41.5v-73h-88v72q-50 7 -82.5 29.5t-52 55.5t-28 75t-11.5 89q0 51 8 94t28.5 75.5t54 53t83.5 27.5v96h88zM110 244q0 -60 18 -103.5
t67 -57.5v323q-26 -8 -42.5 -23.5t-26 -37t-13 -47.5t-3.5 -54z" />
    <glyph glyph-name="exclamdown" unicode="&#xa1;" horiz-adv-x="169" 
d="M41 0.0410156h88v493.97h-88v-493.97zM39 562.007h92v107.993h-92v-107.993z" />
    <glyph glyph-name="Ydieresis" unicode="&#x178;" 
d="M497 670l-197 -348v-322h-88v322l-199 348h98l145 -270l144 270h97zM132 856h88v-108h-88v108zM292 856h88v-108h-88v108z" />
    <glyph glyph-name="quotedbl" unicode="&#x22;" horiz-adv-x="304" 
d="M40 703h89v-175h-89v175zM175 703h88v-175h-88v175z" />
    <glyph glyph-name="fi" unicode="&#xfb01;" horiz-adv-x="398" 
d="M363 486v-486h-88v486h88zM71 486q0 40 8.5 75.5t27.5 61.5t50.5 41.5t78.5 15.5h55v-88h-55q-27 -1 -42.5 -10.5t-23 -24t-9.5 -33t-2 -38.5h116v-88h-116v-398h-88v398h-49v88h49z" />
    <glyph glyph-name="fl" unicode="&#xfb02;" horiz-adv-x="424" 
d="M380 680v-680h-88v680h88zM72 486q0 40 8.5 75.5t27.5 61.5t50.5 41.5t78.5 15.5h55v-88h-55q-27 -1 -42.5 -10.5t-23 -24t-9.5 -33t-2 -38.5h116v-88h-116v-398h-88v398h-49v88h49z" />
    <glyph glyph-name="aring" unicode="&#xe5;" horiz-adv-x="478" 
d="M124 667q0 52 35 87q36 36 88 36q50 0 86 -36t36 -87t-36 -87q-37 -37 -86 -37q-51 0 -88 37q-35 35 -35 87zM247 723q-24 0 -40.5 -16.5t-16.5 -39.5t17 -39.5t40 -16.5t39.5 16.5t16.5 39.5t-16.5 39.5t-39.5 16.5zM361 241q-9 -8 -29.5 -14t-45.5 -11t-49.5 -9
t-41.5 -8q-39 -8 -59 -24t-20 -44q0 -23 9.5 -37t24 -22t32 -10.5t34.5 -0.5q28 2 54.5 10.5t46.5 24t32 39t12 56.5v50zM35 369q7 28 25.5 52t45 40.5t60.5 26t74 9.5q43 0 81 -9.5t66 -27.5t44.5 -45t16.5 -62l1 -353h-88v48q-37 -29 -80.5 -43.5t-88.5 -14.5
q-83 0 -127 40q-22 19 -33 45t-11 55q0 31 10.5 53.5t28.5 38.5t41 26t48 16q18 4 40 7t46.5 7t51 10t52.5 17q34 14 20 53q-10 30 -41.5 44.5t-77.5 14.5q-40 -2 -72.5 -15t-43.5 -44z" />
    <glyph glyph-name="trademark" unicode="&#x2122;" horiz-adv-x="677" 
d="M29 663h275v-61h-107v-313h-63v313h-105v61zM310 663h59l104 -273l105 273h59v-374h-62v191l-76 -189h-53l-74 186v-188h-62v374z" />
    <glyph glyph-name="comma" unicode="," horiz-adv-x="163" 
d="M40 108h88v-97q0 -28 -3 -50.5t-12.5 -40t-27 -29.5t-45.5 -20v55q20 10 26.5 20.5t6.5 32.5v21h-33v108z" />
    <glyph glyph-name="onequarter" unicode="&#xbc;" horiz-adv-x="532" 
d="M391 155h74v-80h47v-75h-47v-55h-74v55h-114v75l71 266h74l-70 -266h39v80zM73 538l-55 25l56 107h73v-337h-74v205zM90 0l210 670h83l-208 -670h-85z" />
    <glyph glyph-name="onehalf" unicode="&#xbd;" horiz-adv-x="588" 
d="M416 74h129v-74h-212v65q0 17 10 24.5t20 17.5l105 81q8 7 10 16t2 23q0 16 -4.5 25.5t-10.5 14.5t-12 7t-10 2t-10.5 -2t-12.5 -7t-10 -15t-4 -25v-10h-64v10q0 49 26.5 80t74.5 31q49 0 75 -31t26 -80q0 -23 -7 -47.5t-28 -39.5zM131 0l210 670h83l-208 -670h-85z
M104 538l-55 25l56 107h73v-337h-74v205z" />
    <glyph glyph-name="threequarters" unicode="&#xbe;" horiz-adv-x="592" 
d="M116 680q45 0 69 -27.5t24 -73.5q0 -42 -24 -71q29 -31 29 -80q0 -50 -25 -77.5t-75 -27.5q-54 0 -75 28.5t-23 79.5h68q2 -24 11.5 -31t18.5 -7q14 0 22.5 7.5t8.5 27.5q0 25 -7 33.5t-27 9.5h-7v64q23 0 30.5 8t7.5 35q0 24 -10 29.5t-16 5.5q-8 0 -17.5 -7.5
t-9.5 -27.5v-11h-68v11q0 46 25 74t70 28zM146 0l210 670h83l-208 -670h-85zM450 155h74v-80h47v-75h-47v-55h-74v55h-114v75l71 266h74l-70 -266h39v80z" />
    <glyph glyph-name="Oslash" unicode="&#xd8;" horiz-adv-x="552" 
d="M124 -96l270 861h92l-271 -861h-91zM275 76q38 2 66.5 8.5t54.5 32.5q6 6 12.5 15.5t12.5 32t10 62t4 105.5v6q0 66 -4 106t-10 62.5t-12.5 32t-12.5 15.5q-26 25 -54.5 32.5t-65.5 8.5q-38 -1 -67.5 -8.5t-54.5 -32.5q-6 -6 -12.5 -15.5t-12.5 -32t-10 -62.5t-4 -106v-6
q0 -66 4 -105.5t10 -62t12.5 -32t12.5 -15.5q25 -26 54 -32.5t67 -8.5zM276 -10q-27 1 -53.5 4.5t-51 10.5t-46.5 19t-39 31q-13 15 -24.5 32.5t-19.5 47.5t-13 77t-5 120v6q0 73 5 120t13.5 76.5t19.5 47t24 32.5q35 39 83.5 52t104.5 14q54 -1 104.5 -14.5t84.5 -51.5
q13 -14 24.5 -31.5t19.5 -47.5t13 -77t5 -120v-6q0 -73 -5 -120t-13 -77t-19.5 -47.5t-24.5 -32.5q-18 -20 -40 -32t-47 -19t-50.5 -10t-49.5 -4z" />
    <glyph glyph-name="ntilde" unicode="&#xf1;" 
d="M463 0h-88v267q0 28 -3.5 47.5t-8.5 33t-12 22t-13 14.5q-12 11 -33 22t-54 11q-31 0 -52 -11t-33 -22q-6 -6 -13 -14t-13 -21t-9.5 -32.5t-3.5 -49.5v-267h-88v486h88v-57q7 15 21 27.5t31 21.5t36 14t36 5q55 0 95 -16t66 -46t38.5 -72.5t12.5 -95.5v-267zM88 621
q58 58 105 58q16 0 35 -6t38 -18q14 -8 27 -13t22 -5q21 0 56 35l49 -48q-58 -59 -104 -59q-32 0 -73 23q-32 19 -49 19q-23 0 -57 -34z" />
    <glyph glyph-name="guilsinglleft" unicode="&#x2039;" horiz-adv-x="259" 
d="M226 345l-106 -102l106 -100v-125l-225 225l225 225v-123z" />
    <glyph glyph-name="germandbls" unicode="&#xdf;" horiz-adv-x="515" 
d="M245 679h28q47 0 81 -12.5t63 -36.5q57 -47 57 -137q0 -23 -5 -48.5t-13 -44.5q-9 -18 -20 -30.5t-25 -24.5q21 -14 35.5 -32t25.5 -37q8 -18 12 -38.5t4 -53.5q0 -42 -15 -77.5t-41 -60.5t-60.5 -39t-74.5 -14q-65 1 -106 35.5t-49 88.5l84 8q8 -27 29 -38.5t47 -11.5
q51 0 77.5 32t26.5 77q0 33 -8 51.5t-25 33.5q-32 29 -100 32h-124v82h115q58 0 94 25q16 13 24 36.5t8 48.5q0 27 -10 46.5t-27 33t-39 20t-45 6.5h-24q-52 0 -82 -27q-8 -7 -15.5 -20t-13.5 -39.5t-9.5 -71t-3.5 -113.5v-48v-342h-84v342v48q0 88 5.5 140.5t14.5 83.5
t21 46.5t24 29.5q26 24 65.5 37.5t77.5 13.5z" />
    <glyph glyph-name="question" unicode="?" horiz-adv-x="446" 
d="M230 357q14 11 26.5 19.5t34.5 17.5q28 16 40.5 40.5t12.5 54.5q0 29 -10.5 49t-28 32t-40.5 17t-48 5q-48 0 -81.5 -20.5t-40.5 -66.5l-86 10q5 46 22 72.5t34 42.5q37 28 73.5 39t80.5 11q45 0 84 -12t67.5 -35t45 -58.5t16.5 -81.5q0 -63 -26.5 -109.5t-80.5 -69.5
q-32 -12 -49 -38t-17 -59v-60h-88v57q0 32 5.5 54.5t14.5 39t19.5 28.5t19.5 21zM261 0h-90v80h90v-80z" />
    <glyph glyph-name="at" unicode="@" horiz-adv-x="563" 
d="M284 -10q-53 2 -104 15.5t-85 51.5q-13 15 -24.5 32.5t-19.5 47.5t-13 76.5t-5 119.5v6q0 73 5 119.5t13.5 76t19.5 47t24 32.5q35 39 83 52t104 14q40 -1 79 -7.5t72 -26t56.5 -55t33.5 -94.5q3 -17 5.5 -61.5t2.5 -98.5q0 -51 -1.5 -102.5t-11.5 -88.5l-87 24
q4 10 6.5 25t2.5 20q-8 -8 -20 -19t-28.5 -21t-36.5 -17t-43 -7q-37 0 -68 12t-53 32.5t-34.5 48.5t-12.5 60q0 46 25 73.5t61 44t77 24l74 13.5q25 4 39.5 12.5t12.5 18.5q-8 31 -23.5 51.5t-35.5 32t-43.5 16.5t-46.5 5q-38 -1 -66.5 -8.5t-54.5 -32.5q-6 -6 -12.5 -15.5
t-12.5 -32t-10 -62t-4 -105.5v-6q0 -66 4 -105.5t10 -62t12.5 -32.5t12.5 -16q25 -26 53.5 -32.5t66.5 -8.5q38 2 68.5 9t53.5 32l85 -38q-15 -27 -40.5 -44t-54 -27t-58 -13.5t-53.5 -4.5zM327 220q15 0 35.5 5.5t38.5 17t30.5 30t12.5 45.5l-2 94q-4 -5 -16 -9t-25 -6
q-8 -1 -35.5 -5.5t-57 -15t-53 -27.5t-23.5 -43q0 -25 8 -41.5t21 -26.5t30 -14t36 -4z" />
    <glyph glyph-name="dollar" unicode="$" horiz-adv-x="593" 
d="M339 747v-70q37 -4 70 -15t59 -32.5t43.5 -55t23.5 -81.5h-99q0 15 -8.5 33t-19.5 27q-13 11 -30.5 20.5t-38.5 14.5v-210l50 -10.5t48.5 -14.5t44.5 -22t39 -33q20 -23 29.5 -51.5t9.5 -57.5q0 -67 -39 -117q-16 -22 -38.5 -36.5t-47.5 -24t-50 -14t-46 -6.5v-87h-88v89
q-39 4 -74 16t-62.5 34t-47 55.5t-26.5 80.5h90q5 -30 13 -44t19 -23q18 -17 40 -25t48 -11v235q-22 5 -37.5 9t-18.5 6q-72 20 -104 64t-32 116q1 37 17 66.5t42.5 51t60.5 35t72 18.5v70h88zM439 111q11 10 22 30t11 45q0 30 -14.5 51t-49.5 35q-8 3 -26.5 8.5t-42.5 10.5
v-216q28 2 54 10t46 26zM148 499q0 -23 9 -39t23.5 -28t33 -20t37.5 -14v191q-20 -4 -38.5 -11t-32.5 -18t-23 -26.5t-9 -34.5z" />
    <glyph glyph-name="copyright" unicode="&#xa9;" horiz-adv-x="567" 
d="M164 335q0 24 1 48.5t8 45t22 36.5t42 24q11 2 21.5 3.5t24.5 1.5t24.5 -1.5t19.5 -3.5q33 -10 47 -27t22 -48l-68 -7q-10 15 -20.5 17.5t-24.5 2.5q-18 0 -27.5 -8.5t-14 -21.5t-5 -29t-0.5 -31v-36t4.5 -30t14.5 -20.5t29 -7.5q18 0 30.5 5t15.5 16l66 -6
q-8 -28 -22 -47t-47 -29q-9 -2 -19.5 -4t-24.5 -2t-24.5 1.5t-21.5 3.5q-27 8 -42 23.5t-22 36.5t-8 45t-1 49zM284 76q38 2 66.5 8.5t54.5 32.5q6 6 12.5 15.5t12.5 32t10 62t4 105.5v6q0 66 -4 106t-10 62.5t-12.5 32t-12.5 15.5q-26 25 -54.5 32.5t-65.5 8.5
q-38 -1 -67.5 -8.5t-54.5 -32.5q-6 -6 -12.5 -15.5t-12.5 -32t-10 -62.5t-4 -106v-6q0 -66 4 -105.5t10 -62t12.5 -32t12.5 -15.5q25 -26 54 -32.5t67 -8.5zM285 -10q-27 1 -53.5 4.5t-51 10.5t-46.5 19t-39 31q-13 15 -24.5 32.5t-19.5 47.5t-13 77t-5 120v6q0 73 5 120
t13.5 76.5t19.5 47t24 32.5q35 39 83.5 52t104.5 14q54 -1 104.5 -14.5t84.5 -51.5q13 -14 24.5 -31.5t19.5 -47.5t13 -77t5 -120v-6q0 -73 -5 -120t-13 -77t-19.5 -47.5t-24.5 -32.5q-18 -20 -40 -32t-47 -19t-50.5 -10t-49.5 -4z" />
    <glyph glyph-name="oslash" unicode="&#xf8;" horiz-adv-x="491" 
d="M244 77q39 0 64 13.5t39.5 36.5t19.5 53t5 63q0 37 -6 67.5t-20.5 53t-39 35t-62.5 12.5q-41 0 -65 -13.5t-37 -36.5t-17 -53t-4 -63q0 -35 5 -66t18.5 -53.5t37.5 -35.5t62 -13zM462 243q0 -56 -11.5 -102t-37 -80t-67.5 -52.5t-102 -18.5q-62 0 -103 20.5t-65.5 55.5
t-34.5 80.5t-10 96.5q0 55 10 102t35 81t65.5 53t102.5 19q65 0 107.5 -20t67 -54.5t34 -81t9.5 -99.5zM105 -146l244 779h92l-245 -779h-91z" />
    <glyph glyph-name="questiondown" unicode="&#xbf;" horiz-adv-x="445" 
d="M230 323.021q14 -10.999 26.5 -19.498q12.5 -8.5 34.5 -17.499q28 -15.999 40.5 -40.498q12.5 -24.498 12.5 -54.4961q0 -28.999 -10.5 -48.9971q-10.5 -19.999 -28 -31.998q-17.5 -12 -40.5 -16.999q-23 -5 -48 -5q-48 0 -81.5 20.499q-33.5 20.498 -40.5 66.4961
l-86 -10q5 -45.9971 22 -72.4951q17 -26.499 34 -42.498q37 -27.998 73.5 -38.9971q36.5 -11 80.5 -11q45 0 84 12q39 11.999 67.5 34.998q28.5 22.998 45 58.4961t16.5 81.4951q0 62.9961 -26.5 109.493t-80.5 69.4961q-32 11.999 -49 37.9971q-17 25.999 -17 58.9971
v59.9961h-88v-56.9971q0 -31.998 5.5 -54.4961q5.5 -22.499 14.5 -38.998t19.5 -28.498t19.5 -20.999zM261 680h-90v-79.9951h90v79.9951z" />
    <glyph glyph-name="asciicircum" unicode="^" horiz-adv-x="446" 
d="M180 680h88l160 -312h-102l-102 213l-104 -213h-102z" />
    <glyph glyph-name="minus" unicode="&#x2212;" horiz-adv-x="452" 
d="M40 288h371v-88h-371v88z" />
    <glyph glyph-name="quotesingle" unicode="'" horiz-adv-x="156" 
d="M40 679h88v-97q0 -28 -3 -50.5t-12.5 -39.5t-27 -29t-45.5 -20v55q20 9 26.5 20t6.5 32v22h-33v107z" />
    <glyph glyph-name="perthousand" unicode="&#x2030;" horiz-adv-x="993" 
d="M525 667h109l-475 -677h-108zM561 191q-5 14 -19 21t-28 8q-15 0 -29 -7.5t-19 -21.5q-7 -14 -7 -48q0 -15 2 -32.5t16 -28.5q4 -5 13.5 -9.5t23.5 -4.5t28 7t19 21q3 7 5 18.5t2 28.5q0 18 -2 29.5t-5 18.5zM387 73q-2 9 -5 25.5t-3 45.5q0 31 3 47l5 27q10 38 45.5 60
t80.5 22q37 0 63 -12.5t41.5 -34t22.5 -50t7 -59.5q-2 -68 -33 -111t-101 -43q-46 0 -81 22t-45 61zM218 561q-5 14 -19 21t-28 8q-15 0 -29 -7.5t-19 -21.5q-7 -14 -7 -48q0 -15 2 -32.5t16 -28.5q4 -5 13.5 -9.5t23.5 -4.5t28 7t19 21q3 7 5 18.5t2 28.5q0 18 -2 29.5
t-5 18.5zM44 443q-2 9 -5 25.5t-3 45.5q0 31 3 47l5 27q10 38 45.5 60t80.5 22q37 0 63 -12.5t41.5 -34t22.5 -50t7 -59.5q-2 -68 -33 -111t-101 -43q-46 0 -81 22t-45 61zM888 191q-5 14 -19 21t-28 8q-15 0 -29 -7.5t-19 -21.5q-7 -14 -7 -48q0 -15 2 -32.5t16 -28.5
q4 -5 13.5 -9.5t23.5 -4.5t28 7t19 21q3 7 5 18.5t2 28.5q0 18 -2 29.5t-5 18.5zM714 73q-2 9 -5 25.5t-3 45.5q0 31 3 47l5 27q10 38 45.5 60t80.5 22q37 0 63 -12.5t41.5 -34t22.5 -50t7 -59.5q-2 -68 -33 -111t-101 -43q-46 0 -81 22t-45 61z" />
    <glyph glyph-name="numbersign" unicode="#" horiz-adv-x="691" 
d="M309 0l58 187h-148l-59 -187h-91l58 187h-109v87h137l42 136h-119v87h147l54 173h92l-54 -173h148l54 173h92l-54 -173h118v-87h-146l-43 -136h129v-87h-156l-59 -187h-91zM246 274h149l42 136h-148z" />
    <glyph glyph-name="ring" unicode="&#x2da;" horiz-adv-x="301" 
d="M28 834q0 25 9.5 47.5t26 39.5t38.5 26.5t48 9.5q25 0 47.5 -9.5t39.5 -26.5t26.5 -39.5t9.5 -47.5q0 -26 -9.5 -48t-26.5 -38.5t-39.5 -26t-47.5 -9.5q-26 0 -48 9.5t-38.5 26t-26 38.5t-9.5 48zM94 834q0 -23 16.5 -39.5t39.5 -16.5t40 16.5t17 39.5t-17 40t-40 17
t-39.5 -17t-16.5 -40z" />
    <glyph glyph-name="space" unicode=" " horiz-adv-x="236" 
 />
    <glyph glyph-name="yen" unicode="&#xa5;" horiz-adv-x="518" 
d="M73 223h143v60h-143v88h115l-171 299h98l145 -270l144 270h97l-170 -299h113v-88h-140v-60h140v-88h-140v-135h-88v135h-143v88z" />
    <glyph glyph-name="percent" unicode="%" horiz-adv-x="674" 
d="M522 667h109l-475 -677h-108zM558 191q-5 14 -19 21t-28 8q-15 0 -29 -7.5t-19 -21.5q-7 -14 -7 -48q0 -15 2 -32.5t16 -28.5q4 -5 13.5 -9.5t23.5 -4.5t28 7t19 21q3 7 5 18.5t2 28.5q0 18 -2 29.5t-5 18.5zM384 73q-2 9 -5 25.5t-3 45.5q0 31 3 47l5 27q10 38 45.5 60
t80.5 22q37 0 63 -12.5t41.5 -34t22.5 -50t7 -59.5q-2 -68 -33 -111t-101 -43q-46 0 -81 22t-45 61zM215 571q-5 14 -19 21t-28 8q-15 0 -29 -7.5t-19 -21.5q-7 -14 -7 -48q0 -15 2 -32.5t16 -28.5q4 -5 13.5 -9.5t23.5 -4.5t28 7t19 21q3 7 5 18.5t2 28.5q0 18 -2 29.5
t-5 18.5zM41 453q-2 9 -5 25.5t-3 45.5q0 31 3 47l5 27q10 38 45.5 60t80.5 22q37 0 63 -12.5t41.5 -34t22.5 -50t7 -59.5q-2 -68 -33 -111t-101 -43q-46 0 -81 22t-45 61z" />
    <glyph glyph-name="Euro" unicode="&#x20ac;" horiz-adv-x="590" 
d="M335 -8q-30 1 -53 4t-46 9q-41 12 -67.5 33t-43.5 48.5t-25.5 59.5t-12.5 67h-64v88h60v60h-60v88h64q3 39 8.5 65.5t13.5 45.5t17 32t20 24q18 19 40 32t47 20t50 10t49 3q54 -1 104.5 -14t85.5 -51q11 -14 21.5 -29.5t18.5 -40.5l-91 -10q-9 20 -24 31.5t-33.5 17.5
t-39 8t-39.5 3q-39 -2 -68 -8.5t-54 -32.5l-9 -11t-9.5 -17.5t-9 -30t-7.5 -47.5h216v-88h-220v-60h220v-88h-215q3 -26 7 -42.5t8.5 -27t9.5 -16t9 -9.5q26 -26 54.5 -33t66.5 -9q21 1 42 4t40 9.5t33.5 18.5t21.5 31l91 -12q-17 -48 -51 -78t-81 -44q-42 -12 -95 -13z" />
    <glyph glyph-name="A" unicode="A" horiz-adv-x="593" 
d="M249 670h90l238 -670h-95l-44 124h-287l-41 -124h-94zM181 208h227l-114 325z" />
    <glyph glyph-name="ogonek" unicode="&#x2db;" horiz-adv-x="323" 
d="M317 -210q-56 -44 -112 -43q-84 2 -128.5 51t-47.5 126q1 40 29 78h82q-31 -36 -29 -79q3 -37 26.5 -63.5t66.5 -29.5q26 -1 55 18z" />
    <glyph glyph-name="fraction" unicode="&#x2044;" horiz-adv-x="314" 
d="M6 0l210 670h92l-211 -670h-91z" />
    <glyph glyph-name="caron" unicode="&#x2c7;" horiz-adv-x="380" 
d="M17 690h91l82 -95l83 95h90l-135 -166h-75z" />
    <glyph glyph-name="zcaron" unicode="&#x17e;" horiz-adv-x="463" 
d="M38 88l266 310h-253v88h367v-88l-271 -310h280v-88h-389v88zM76 690h91l82 -95l83 95h90l-135 -166h-75z" />
    <glyph glyph-name="Zcaron" unicode="&#x17d;" horiz-adv-x="528" 
d="M31 86l337 497h-320v87h423v-86l-333 -496h342v-88h-449v86zM91 896h91l82 -95l83 95h90l-135 -166h-75z" />
    <glyph glyph-name="breve" unicode="&#x2d8;" horiz-adv-x="402" 
d="M375 677q-7 -72 -49 -110q-50 -45 -125 -45q-74 0 -125 46q-42 38 -49 109h88q1 -30 20 -47q28 -24 66 -24t66 24q20 17 22 47h86z" />
    <glyph glyph-name="eogonek" unicode="&#x119;" horiz-adv-x="517" 
d="M470 206h-342q3 -31 10 -55.5t21.5 -41t37.5 -25.5t57 -9q41 0 63.5 14t33.5 31l94 -15q-21 -54 -71.5 -84.5t-119.5 -30.5q-61 0 -102 20t-66.5 54.5t-36.5 80.5t-11 98q0 55 10.5 101.5t35.5 80.5t66.5 53t103.5 19q61 0 102.5 -19t67 -53t36 -80.5t10.5 -101.5v-37z
M254 412q-26 0 -48.5 -6.5t-40 -21.5t-27.5 -39.5t-11 -60.5h254q0 37 -10 61.5t-27.5 39.5t-40.5 21t-49 6zM473 -210q-56 -44 -112 -43q-84 2 -128.5 51t-47.5 126q1 40 29 78h82q-31 -36 -29 -79q3 -37 26.5 -63.5t66.5 -29.5q26 -1 55 18z" />
    <glyph glyph-name="ecaron" unicode="&#x11b;" horiz-adv-x="517" 
d="M470 206h-342q3 -31 10 -55.5t21.5 -41t37.5 -25.5t57 -9q41 0 63.5 14t33.5 31l94 -15q-21 -54 -71.5 -84.5t-119.5 -30.5q-61 0 -102 20t-66.5 54.5t-36.5 80.5t-11 98q0 55 10.5 101.5t35.5 80.5t66.5 53t103.5 19q61 0 102.5 -19t67 -53t36 -80.5t10.5 -101.5v-37z
M254 412q-26 0 -48.5 -6.5t-40 -21.5t-27.5 -39.5t-11 -60.5h254q0 37 -10 61.5t-27.5 39.5t-40.5 21t-49 6zM88 690h91l82 -95l83 95h90l-135 -166h-75z" />
    <glyph glyph-name="ccaron" unicode="&#x10d;" horiz-adv-x="499" 
d="M258 497q87 0 136 -35.5t65 -90.5l-94 -9q-14 28 -46 39t-61 11q-41 0 -66 -14t-38.5 -37t-18 -53.5t-4.5 -63.5q0 -36 5.5 -66.5t19.5 -52.5t39 -34.5t63 -12.5q14 0 30.5 2.5t31.5 8.5t27 15.5t18 22.5l94 -9q-16 -56 -65 -91t-136 -35q-65 0 -106.5 20t-65.5 54.5
t-34.5 80t-13.5 97.5q0 57 10.5 103.5t36 79.5t68 51.5t105.5 18.5zM84 690h91l82 -95l83 95h90l-135 -166h-75z" />
    <glyph glyph-name="cacute" unicode="&#x107;" 
d="M258 497q87 0 136 -35.5t65 -90.5l-94 -9q-14 28 -46 39t-61 11q-41 0 -66 -14t-38.5 -37t-18 -53.5t-4.5 -63.5q0 -36 5.5 -66.5t19.5 -52.5t39 -34.5t63 -12.5q14 0 30.5 2.5t31.5 8.5t27 15.5t18 22.5l94 -9q-16 -56 -65 -91t-136 -35q-65 0 -106.5 20t-65.5 54.5
t-34.5 80t-13.5 97.5q0 57 10.5 103.5t36 79.5t68 51.5t105.5 18.5zM401 711l-119 -166h-81l97 166h103z" />
    <glyph glyph-name="aogonek" unicode="&#x105;" horiz-adv-x="504" 
d="M367 241q-9 -8 -29.5 -14t-45.5 -11t-49.5 -9t-41.5 -8q-39 -8 -59 -24t-20 -44q0 -23 9.5 -37t24 -22t32 -10.5t34.5 -0.5q28 2 54.5 10.5t46.5 24t32 39t12 56.5v50zM41 369q7 28 25.5 52t45 40.5t60.5 26t74 9.5q43 0 81 -9.5t66 -27.5t44.5 -45t16.5 -62l1 -353h-88
v48q-37 -29 -80.5 -43.5t-88.5 -14.5q-83 0 -127 40q-22 19 -33 45t-11 55q0 31 10.5 53.5t28.5 38.5t41 26t48 16q18 4 40 7t46.5 7t51 10t52.5 17q34 14 20 53q-10 30 -41.5 44.5t-77.5 14.5q-40 -2 -72.5 -15t-43.5 -44zM456 -210q-56 -44 -112 -43q-84 2 -128.5 51
t-47.5 126q1 40 29 78h82q-31 -36 -29 -79q3 -37 26.5 -63.5t66.5 -29.5q26 -1 55 18z" />
    <glyph glyph-name="Abreve" unicode="&#x102;" horiz-adv-x="622" 
d="M253 670h90l238 -670h-95l-44 124h-287l-41 -124h-94zM185 208h227l-114 325zM462 865q-7 -72 -49 -110q-50 -45 -125 -45q-74 0 -125 46q-42 38 -49 109h88q1 -30 20 -47q28 -24 66 -24t66 24q20 17 22 47h86z" />
    <glyph glyph-name="abreve" unicode="&#x103;" horiz-adv-x="499" 
d="M363 241q-9 -8 -29.5 -14t-45.5 -11t-49.5 -9t-41.5 -8q-39 -8 -59 -24t-20 -44q0 -23 9.5 -37t24 -22t32 -10.5t34.5 -0.5q28 2 54.5 10.5t46.5 24t32 39t12 56.5v50zM37 369q7 28 25.5 52t45 40.5t60.5 26t74 9.5q43 0 81 -9.5t66 -27.5t44.5 -45t16.5 -62l1 -353h-88
v48q-37 -29 -80.5 -43.5t-88.5 -14.5q-83 0 -127 40q-22 19 -33 45t-11 55q0 31 10.5 53.5t28.5 38.5t41 26t48 16q18 4 40 7t46.5 7t51 10t52.5 17q34 14 20 53q-10 30 -41.5 44.5t-77.5 14.5q-40 -2 -72.5 -15t-43.5 -44zM417 700q-7 -72 -49 -110q-50 -45 -125 -45
q-74 0 -125 46q-42 38 -49 109h88q1 -30 20 -47q28 -24 66 -24t66 24q20 17 22 47h86z" />
    <glyph glyph-name="uring" unicode="&#x16f;" 
d="M38 486h88v-267q0 -28 3.5 -47.5t8.5 -33t12 -22t13 -14.5q12 -11 33 -22t54 -11q31 1 52 11.5t33 21.5q6 6 13 14t13 21t9.5 32.5t3.5 49.5v267h88v-486h-88v57q-8 -15 -21.5 -27.5t-30.5 -21.5t-36 -14t-36 -5q-55 0 -95 16t-66 46t-38.5 72.5t-12.5 95.5v267zM129 670
q0 25 9.5 47.5t26 39.5t38.5 26.5t48 9.5q25 0 47.5 -9.5t39.5 -26.5t26.5 -39.5t9.5 -47.5q0 -26 -9.5 -48t-26.5 -38.5t-39.5 -26t-47.5 -9.5q-26 0 -48 9.5t-38.5 26t-26 38.5t-9.5 48zM195 670q0 -23 16.5 -39.5t39.5 -16.5t40 16.5t17 39.5t-17 40t-40 17t-39.5 -17
t-16.5 -40z" />
    <glyph glyph-name="Uring" unicode="&#x16e;" horiz-adv-x="592" 
d="M540 668v-365q0 -66 -4.5 -107t-12.5 -67.5t-19 -42t-24 -30.5q-18 -20 -40 -32.5t-46 -19.5t-50 -10t-52 -4q-53 2 -103.5 14.5t-85.5 51.5q-13 15 -24.5 30.5t-19.5 41.5t-13 67t-5 106v367h88v-365q1 -54 5.5 -95.5t20.5 -70t48.5 -44.5t88.5 -17q59 1 91 19t47 48
t18 70.5t4 87.5v367h88zM172 834q0 25 9.5 47.5t26 39.5t38.5 26.5t48 9.5q25 0 47.5 -9.5t39.5 -26.5t26.5 -39.5t9.5 -47.5q0 -26 -9.5 -48t-26.5 -38.5t-39.5 -26t-47.5 -9.5q-26 0 -48 9.5t-38.5 26t-26 38.5t-9.5 48zM238 834q0 -23 16.5 -39.5t39.5 -16.5t40 16.5
t17 39.5t-17 40t-40 17t-39.5 -17t-16.5 -40z" />
    <glyph glyph-name="Rcaron" unicode="&#x158;" horiz-adv-x="605" 
d="M40 0v670h315q103 0 152 -56.5t49 -151.5q0 -28 -5.5 -50.5t-13.5 -40t-17.5 -30t-16.5 -20.5q-28 -26 -63 -38.5t-72 -14.5l208 -268h-114l-204 268h-130v-268h-88zM128 583v-227h227q54 0 84 25.5t30 87.5q0 33 -8.5 54.5t-24 34.5t-36.5 18.5t-45 6.5h-227zM104 875
h91l82 -95l83 95h90l-135 -166h-75z" />
    <glyph glyph-name="Eogonek" unicode="&#x118;" 
d="M467 670v-87h-342v-203h258v-84h-258v-208h342v-88h-429v670h429zM470 -210q-56 -44 -112 -43q-84 2 -128.5 51t-47.5 126q1 40 29 78h82q-31 -36 -29 -79q3 -37 26.5 -63.5t66.5 -29.5q26 -1 55 18z" />
    <glyph glyph-name="Ccaron" unicode="&#x10c;" horiz-adv-x="559" 
d="M292 -8q-30 1 -53 4t-46 9q-57 18 -88 52.5t-45.5 79t-17 95.5t-2.5 102v5q0 73 5 120t13 77t19.5 47.5t25.5 32.5q18 19 40 32t47 20t50 10t49 3q54 -1 104.5 -14t85.5 -51q11 -14 21.5 -29.5t18.5 -40.5l-91 -10q-9 20 -24 31.5t-33.5 17.5t-39 8t-39.5 3
q-39 -2 -68 -8.5t-54 -32.5q-6 -6 -12.5 -16t-12.5 -32.5t-10 -62t-4 -105.5v-5q0 -66 4 -105.5t10 -62.5t12.5 -32.5t12.5 -15.5q26 -26 54.5 -33t66.5 -9q21 1 42 4t40 9.5t33.5 18.5t21.5 31l91 -12q-17 -48 -51 -78t-81 -44q-42 -12 -95 -13zM127 876h91l82 -95l83 95
h90l-135 -166h-75z" />
    <glyph glyph-name="Dcaron" unicode="&#x10e;" horiz-adv-x="597" 
d="M40 670h255q25 0 52 -3.5t52.5 -11t48 -19.5t39.5 -29q13 -15 24 -32t19 -46t12.5 -75t4.5 -118v-7q0 -70 -4.5 -114.5t-12.5 -73t-19 -45.5t-24 -32q-38 -38 -87.5 -51t-99.5 -13h-260v670zM128 88h167q41 0 69.5 6.5t54.5 32.5l12 14.5t13 29.5t10 58t4 100v7
q0 64 -4 102.5t-10 60t-13 30.5l-12 15q-26 26 -57 32.5t-67 6.5h-167v-495zM101 876h91l82 -95l83 95h90l-135 -166h-75z" />
    <glyph glyph-name="Ncaron" unicode="&#x147;" horiz-adv-x="602" 
d="M552 670v-670h-88l-336 504v-504h-88v670h88l336 -505v505h88zM129 877h91l82 -95l83 95h90l-135 -166h-75z" />
    <glyph glyph-name="dcaron" unicode="&#x10f;" horiz-adv-x="692" 
d="M41 239q0 53 9 99.5t33 81.5t65.5 55.5t107.5 20.5q20 0 40 -5t38 -14t31.5 -21.5t20.5 -26.5v241h88v-670h-88v50q-17 -25 -53.5 -42t-76.5 -17q-60 0 -101 18t-66.5 51t-36.5 78.5t-11 100.5zM256 77q35 0 57 11t32 20q7 7 14 15t13 22.5t10 37.5t4 60q0 36 -4 59
t-10 37.5t-13 23t-14 15.5q-10 10 -32 21t-57 11q-32 0 -55 -11t-34 -21q-7 -7 -14 -15.5t-12 -23t-8.5 -37.5t-3.5 -59q0 -39 3.5 -62t8.5 -37t12 -21.5l14 -14.5q11 -9 32.5 -20t56.5 -11zM568 661h88v-97q0 -22 -3 -41.5t-12.5 -36t-27 -29t-45.5 -20.5v55q20 10 26.5 20
t6.5 20v22h-33v107z" />
    <glyph glyph-name="Cacute" unicode="&#x106;" horiz-adv-x="561" 
d="M292 -8q-30 1 -53 4t-46 9q-57 18 -88 52.5t-45.5 79t-17 95.5t-2.5 102v5q0 73 5 120t13 77t19.5 47.5t25.5 32.5q18 19 40 32t47 20t50 10t49 3q54 -1 104.5 -14t85.5 -51q11 -14 21.5 -29.5t18.5 -40.5l-91 -10q-9 20 -24 31.5t-33.5 17.5t-39 8t-39.5 3
q-39 -2 -68 -8.5t-54 -32.5q-6 -6 -12.5 -16t-12.5 -32.5t-10 -62t-4 -105.5v-5q0 -66 4 -105.5t10 -62.5t12.5 -32.5t12.5 -15.5q26 -26 54.5 -33t66.5 -9q21 1 42 4t40 9.5t33.5 18.5t21.5 31l91 -12q-17 -48 -51 -78t-81 -44q-42 -12 -95 -13zM442 895l-119 -166h-81
l97 166h103z" />
    <glyph glyph-name="Lacute" unicode="&#x139;" horiz-adv-x="512" 
d="M133 670v-582h340v-88h-428v670h88zM451 875l-119 -166h-81l97 166h103z" />
    <glyph glyph-name="Racute" unicode="&#x154;" horiz-adv-x="597" 
d="M40 0v670h315q103 0 152 -56.5t49 -151.5q0 -28 -5.5 -50.5t-13.5 -40t-17.5 -30t-16.5 -20.5q-28 -26 -63 -38.5t-72 -14.5l208 -268h-114l-204 268h-130v-268h-88zM128 583v-227h227q54 0 84 25.5t30 87.5q0 33 -8.5 54.5t-24 34.5t-36.5 18.5t-45 6.5h-227zM417 895
l-119 -166h-81l97 166h103z" />
    <glyph glyph-name="rcaron" unicode="&#x159;" horiz-adv-x="344" 
d="M312 401q-12 7 -27 12t-35 4q-29 -1 -51.5 -13t-38 -32t-24.5 -46t-9 -53v-273h-88v487h88v-58q7 15 20.5 27.5t30.5 21.5t36.5 14t37.5 5q30 0 60 -8v-88zM8 711h91l82 -95l83 95h90l-135 -166h-75z" />
    <glyph glyph-name="Dcroat" unicode="&#x110;" horiz-adv-x="624" 
d="M83 670h255q25 0 52 -3.5t52.5 -11t48 -19.5t39.5 -29q13 -15 24 -32t19 -46t12.5 -75t4.5 -118v-7q0 -70 -4.5 -114.5t-12.5 -73t-19 -45.5t-24 -32q-38 -38 -87.5 -51t-99.5 -13h-260v201h-54v88h54v381zM239 289v-88h-68v-122h167q41 0 69.5 6.5t54.5 32.5q5 6 12 16
t13 32.5t10 61t4 101.5v7q0 64 -4 104t-10 63t-13 33t-12 16q-26 26 -57 32.5t-67 6.5h-167v-302h68z" />
    <glyph glyph-name="ncaron" unicode="&#x148;" horiz-adv-x="512" 
d="M464 0h-88v267q0 28 -3.5 47.5t-8.5 33t-12 22t-13 14.5q-12 11 -33 22t-54 11q-31 0 -52 -11t-33 -22q-6 -6 -13 -14t-13 -21t-9.5 -32.5t-3.5 -49.5v-267h-88v486h88v-57q7 15 21 27.5t31 21.5t36 14t36 5q55 0 95 -16t66 -46t38.5 -72.5t12.5 -95.5v-267zM84 711h91
l82 -95l83 95h90l-135 -166h-75z" />
    <glyph glyph-name="nacute" unicode="&#x144;" horiz-adv-x="512" 
d="M464 0h-88v267q0 28 -3.5 47.5t-8.5 33t-12 22t-13 14.5q-12 11 -33 22t-54 11q-31 0 -52 -11t-33 -22q-6 -6 -13 -14t-13 -21t-9.5 -32.5t-3.5 -49.5v-267h-88v486h88v-57q7 15 21 27.5t31 21.5t36 14t36 5q55 0 95 -16t66 -46t38.5 -72.5t12.5 -95.5v-267zM413 710
l-119 -166h-81l97 166h103z" />
    <glyph glyph-name="hyphen" unicode="-" horiz-adv-x="452" 
d="M40 288h371v-88h-371v88z" />
    <glyph glyph-name="Scaron" unicode="&#x160;" horiz-adv-x="571" 
d="M277 -10q-43 0 -83.5 11t-75 31t-59.5 48.5t-37 64.5l89 11q12 -22 31 -37.5t41 -25t46.5 -14t47.5 -4.5q31 0 59 6t49.5 19.5t34 35t12.5 53.5q0 30 -19 53t-54 38q-40 17 -83 23.5t-83 20.5q-67 21 -103.5 66t-36.5 117q1 41 21 73.5t52 54.5t73 33.5t83 11.5
q40 0 79.5 -11t71 -29t52 -42.5t24.5 -51.5l-96 -12q-6 18 -21 30t-33 19t-37 9.5t-34 2.5q-23 0 -48.5 -5t-46.5 -16.5t-35 -30t-14 -44.5q0 -33 17.5 -53t43.5 -32t54.5 -18t51.5 -12l46 -12t46.5 -15.5t43.5 -23t39 -33.5q20 -23 29.5 -51t9.5 -57q0 -54 -21.5 -92.5
t-56.5 -63.5t-79.5 -36t-90.5 -10zM102 877h91l82 -95l83 95h90l-135 -166h-75z" />
    <glyph glyph-name="scaron" unicode="&#x161;" horiz-adv-x="478" 
d="M335 375q-8 18 -34.5 31.5t-64.5 13.5q-47 0 -79 -12t-32 -41q0 -21 11 -33t40 -19q3 -1 21 -5t38 -9q24 -5 53 -12q31 -7 58.5 -19.5t48.5 -30.5t33.5 -41.5t12.5 -51.5q0 -39 -18.5 -68.5t-48 -49t-67 -29t-75.5 -9.5q-34 0 -68 8t-62.5 23.5t-48.5 39.5t-27 56l92 11
q9 -23 40.5 -40.5t73.5 -17.5q25 0 46.5 3.5t38 11.5t26 22t9.5 35q0 11 -8 25.5t-40 25.5q-24 8 -51 15.5l-50 13.5l-53 12q-48 11 -80.5 43t-32.5 86q0 33 16.5 58t44 42t63.5 25.5t75 8.5q35 0 67.5 -7t59 -20.5t44.5 -34.5t24 -48zM70 690h91l82 -95l83 95h90l-135 -166
h-75z" />
    <glyph glyph-name="mu" unicode="&#xb5;" horiz-adv-x="487" 
d="M123 486v-267q0 -28 3.5 -47.5t8.5 -33t12 -22t13 -14.5q12 -11 33 -22t54 -11q31 1 52 11.5t33 21.5q6 6 13 14t13 21t9.5 32.5t3.5 49.5v267h88v-486h-88v57q-8 -15 -21.5 -27.5t-30.5 -21.5t-36 -14t-36 -5q-38 0 -69 8t-55 22v-211h-88v678h88z" />
    <glyph glyph-name="mu" unicode="&#x3bc;" horiz-adv-x="487" 
d="M123 486v-267q0 -28 3.5 -47.5t8.5 -33t12 -22t13 -14.5q12 -11 33 -22t54 -11q31 1 52 11.5t33 21.5q6 6 13 14t13 21t9.5 32.5t3.5 49.5v267h88v-486h-88v57q-8 -15 -21.5 -27.5t-30.5 -21.5t-36 -14t-36 -5q-38 0 -69 8t-55 22v-211h-88v678h88z" />
    <glyph glyph-name="thorn" unicode="&#xfe;" horiz-adv-x="471" 
d="M456 239q0 -55 -11 -100.5t-36.5 -78.5t-66.5 -51t-101 -18q-20 0 -39.5 5.5t-37 13.5t-31.5 18.5t-22 21.5v-243h-88v863h88v-241q17 29 53.5 48t76.5 19q66 0 107.5 -20.5t65.5 -55.5t33 -81.5t9 -99.5zM241 77q35 0 56.5 11t32.5 20l14 14.5t12 21.5t8.5 37t3.5 62
q0 36 -3.5 59t-8.5 37.5t-12 23t-14 15.5q-11 10 -34 21t-55 11q-35 0 -57 -11t-32 -21q-7 -7 -14 -15.5t-13 -23t-10 -37.5t-4 -59q0 -37 4 -60t10 -37.5t13 -22.5t14 -15q10 -9 32 -20t57 -11z" />
    <glyph glyph-name="Thorn" unicode="&#xde;" horiz-adv-x="503" 
d="M470 329q0 -55 -11 -100.5t-36.5 -78.5t-66.5 -51t-101 -18q-20 0 -39.5 5.5t-37 13.5t-31.5 18.5t-22 21.5v-140h-88v670h88v-151q17 29 53.5 48t76.5 19q66 0 107.5 -20.5t65.5 -55.5t33 -81.5t9 -99.5zM255 167q35 0 56.5 11t32.5 20l14 14.5t12 21.5t8.5 37t3.5 62
q0 36 -3.5 59t-8.5 37.5t-12 23t-14 15.5q-11 10 -34 21t-55 11q-35 0 -57 -11t-32 -21q-7 -7 -14 -15.5t-13 -23t-10 -37.5t-4 -59q0 -37 4 -60t10 -37.5t13 -22.5t14 -15q10 -9 32 -20t57 -11z" />
    </font>
</defs>
</svg>
